<svg xmlns="http://www.w3.org/2000/svg" style="display: none;">
  <symbol id="board" viewBox="0 0 90 70">
    <rect fill="none" width="90" height="70"/>
    <rect fill="#95704d" x="15" y="5" width="60" height="60" rx="5.67" ry="5.67"/>
    <rect fill="#fbefc4" x="45" y="8.33" width="13.33" height="13.33"/>
    <rect fill="#fbefc4" x="58.33" y="21.67" width="13.33" height="13.34"/>
    <rect fill="#fbefc4" x="18.33" y="8.33" width="13.34" height="13.33"/>
    <rect fill="#fbefc4" x="31.67" y="21.67" width="13.33" height="13.34"/>
    <rect fill="#fbefc4" x="18.33" y="35" width="13.34" height="13.33"/>
    <rect fill="#fbefc4" x="31.67" y="48.33" width="13.33" height="13.34"/>
    <rect fill="#fbefc4" x="45" y="35" width="13.33" height="13.33"/>
    <rect fill="#fbefc4" x="58.33" y="48.33" width="13.33" height="13.34"/>
  </symbol>
  <symbol id="handpawn" viewBox="0 0 90 70">
    <rect fill="none" width="90" height="70"/>
    <path fill="#d3aa84" d="M39.18,35.25c0,.41,0,4.17,4,4.18a10.62,10.62,0,0,0,4.66-1.18l24.42-11A3.36,3.36,0,0,0,74,24.36V10.29a3.15,3.15,0,0,0-2.74-2.7C65.67,6.53,55.93,5,50.8,5c-6.66,0-8,.49-12.2,1.6a40.3,40.3,0,0,0-7.68,3.34s-7.29,3.35-9.73,6.31C18.88,19,15.65,24.84,16,26.52a3.2,3.2,0,0,0,3,2.62c2.48-.12,8.4-7.46,8.4-7.46s7.87-3.62,11.74-3.62h7.74c1.94,0,4.6,1.95,5.7,4.17.87,1.73-10.12,8.66-11.5,9.5a4.6,4.6,0,0,0-1.76,2.7Z"/>
    <path fill="#666564" d="M39.36,34.42a10.1,10.1,0,0,0,.1-1.35,8.71,8.71,0,1,0-13.91,7C25,40.31,24,41,24,41.77v1.94a1.89,1.89,0,0,0,1.14,1.62l-3.07,8.06a5.53,5.53,0,0,0-3.88,1.93,7.61,7.61,0,0,0-1.93,3.88v3.87A2,2,0,0,0,18.17,65H43.34a2,2,0,0,0,1.93-1.93V59.2a7.61,7.61,0,0,0-1.93-3.88,5.53,5.53,0,0,0-3.88-1.93l-3.07-8.06a1.89,1.89,0,0,0,1.14-1.62V41.77c0-.82-1-1.46-1.58-1.75a8.73,8.73,0,0,0,3.23-4.77Z"/>
    <path fill="#8b8987" d="M18.17,63.33A.48.48,0,0,1,17.9,63V59.2h0a6.45,6.45,0,0,1,1.51-2.77,3.87,3.87,0,0,1,2.63-1.37l1.12,0L23.6,54l3.6-9.43-1.29-.69a1,1,0,0,1-.28-.2l0-1.85s0,0,0,0a5.33,5.33,0,0,0,.65-.36l2.33-1.22-2.11-1.59a7,7,0,0,1-2.83-5.61,7,7,0,0,1,7-7,7.55,7.55,0,0,1,3.76,7.05,7.88,7.88,0,0,1-.08,1.09l-.17.75a7,7,0,0,1-2.59,3.77l-2.11,1.59s.92,1.7,1,1.76l-.06,1.68-1.09.84s-.29,6.73-.28,10.51c-6,.6-4.18,8.27-4.18,8.27Z"/>
    <path fill="#dad8d6" d="M25.38,33.07a5.39,5.39,0,0,1,4.88-5.36C31.91,28.92,25.38,34.75,25.38,33.07Z"/>
    <path fill="#a88865" d="M74,24.36V13.22A35.1,35.1,0,0,1,67,26L56.34,34.41h0l15.88-7.13A3.36,3.36,0,0,0,74,24.36Z"/>
  </symbol>
  <symbol id="openingprincipals" viewBox="0 0 90 70">
    <rect fill="none" width="90" height="70"/>
    <path fill="#575452" d="M74.16,26,46.68.65a2.49,2.49,0,0,0-3.36,0L15.84,26a2.46,2.46,0,0,0-.14,3.49l5.82,6.12a2.48,2.48,0,0,0,3.5.14l7.8-7.18V67.46H57.18V28.53L65,35.71a2.48,2.48,0,0,0,3.5-.14l5.82-6.12A2.46,2.46,0,0,0,74.16,26Z"/>
    <g opacity="0.2">
      <path d="M46.84,25.16a9,9,0,0,0-5.52,16l-4.63,3.07-.36.23v.42a8,8,0,0,0,.78,3.52h4.77c-.19,2.18-.78,7.53-7.78,11.94-3.13,2,24.43-.76,24.43-.76-5.55-4.8-6.47-9-6.67-11.2h4.77a8.09,8.09,0,0,0,.54-3.52V44.4l-.12-.23-4.65-3.06a8.94,8.94,0,0,0-5.57-15.95Z"/>
    </g>
    <path fill="#d2ceb4" d="M44.77,23.79a8.94,8.94,0,0,0-5.52,16l-4.63,3.07-.35.23v.42A8,8,0,0,0,35.05,47h4.77c-.19,2.18-.77,7.53-7.78,11.95-3.13,2-4.92,5.72-4.91,10.28V70h.78l33.89-.07h.78l.29-.85a11.75,11.75,0,0,0-5.25-10.19C50.62,54.51,50,49.16,49.8,47h4.77a7.82,7.82,0,0,0,.77-3.52V43L55,42.79l-4.64-3a8.95,8.95,0,0,0-5.58-16Z"/>
    <path opacity="0.15" d="M50.71,36c-2.15,3-6.35,3.77-6.35,3.77h5.18c.07,0,3.67,3.44,0,5.84l-15,0v.07A6.06,6.06,0,0,0,35.05,47h4.77s0,.09,0,.14h.55s5.16,5.27,9.45,9.3c3.23,3,8.08,4,10,4.28a10.49,10.49,0,0,0-2.18-1.82C50.62,54.51,50,49.16,49.8,47h4.77a7.82,7.82,0,0,0,.77-3.52V43l-.26-.18L55,42.79l-4.64-3a8.94,8.94,0,0,0-2.47-15.39h-.06C51.17,26,53.71,31.7,50.71,36Z"/>
    <path fill="#ebe8ce" d="M39.29,39.73l0,0h0l-4.63,3.07-.35.23v.36H38.5A27.52,27.52,0,0,1,39.29,39.73Z"/>
    <path fill="#ebe8ce" d="M35.84,32.75a8.85,8.85,0,0,0,.4,2.57l.1.18c.57-7.59,5.4-11.33,8.54-11.71h-.11A9,9,0,0,0,35.84,32.75Z"/>
    <path fill="#ebe8ce" d="M27.25,69.21c1.69-5.57,4.08-6.3,8.5-9.52,2.93-2.14,3.31-8.6,3.31-8.6s-.08.06-.27.36A16.36,16.36,0,0,1,32,58.94a10.3,10.3,0,0,0-4.25,5.77C27.11,67.4,27.06,69.86,27.25,69.21Z"/>
  </symbol>
  <symbol id="trophy" viewBox="0 0 90 70">
    <rect fill="none" width="90" height="70"/>
    <path fill="#95704d" d="M26.64,46.67H63.36A4.63,4.63,0,0,1,68,51.3V65.37A4.63,4.63,0,0,1,63.36,70H26.64A4.63,4.63,0,0,1,22,65.37V51.3A4.64,4.64,0,0,1,26.64,46.67Z"/>
    <rect fill="#fcd157" x="32.33" y="52.5" width="25.26" height="6.32"/>
    <path fill="#fed859" d="M71.21,4.84l-.1-1.63H59.54V0H30.46V3.22H18.88l-.09,1.62s0,.22,0,.55a20.49,20.49,0,0,0,1.79,8.41,12.33,12.33,0,0,0,4,4.84,12.4,12.4,0,0,0,7.1,2.12A14.62,14.62,0,0,0,41,29v4.88a8.11,8.11,0,0,1-8.11,8h-.51v4.81H57.59V41.86h-.51A8.11,8.11,0,0,1,49,33.75V29a14.58,14.58,0,0,0,9.39-8.23,12.4,12.4,0,0,0,7.1-2.12,13.34,13.34,0,0,0,5-7.47,21.43,21.43,0,0,0,.81-5.78C71.22,5.06,71.21,4.87,71.21,4.84ZM26.86,15.34a9.36,9.36,0,0,1-3.39-5.27,17.24,17.24,0,0,1-.58-2.83h7.57V15a13,13,0,0,0,.1,1.66A7.85,7.85,0,0,1,26.86,15.34Zm38.92-3.27a8.18,8.18,0,0,1-2.64,3.27,7.85,7.85,0,0,1-3.69,1.32A15.11,15.11,0,0,0,59.54,15V7.24h7.58A15.88,15.88,0,0,1,65.78,12.07Z"/>
    <path fill="#f2ac23" d="M41,29v4.88a8.11,8.11,0,0,1-8.11,8h-.51v4.81H57.59V41.86h-.51A8.11,8.11,0,0,1,49,33.75V29Z"/>
    <path fill="#fcd157" d="M41,30.35v3.5a8.11,8.11,0,0,1-8.11,8h-.51v4.81H57.59V41.86h-.51C45.6,41.86,41,30.35,41,30.35Z"/>
    <path fill="#f2ac23" d="M58.36,20.76a12.4,12.4,0,0,0,7.1-2.12,13.34,13.34,0,0,0,5-7.47,21.43,21.43,0,0,0,.81-5.78c0-.33,0-.52,0-.55l-.1-1.63H59.54v4h7.58a15.88,15.88,0,0,1-1.34,4.83,8.18,8.18,0,0,1-2.64,3.27,7.85,7.85,0,0,1-3.69,1.32Z"/>
    <path fill="#f2ac23" d="M30.56,16.66a7.6,7.6,0,0,1-3.7-1.32,8,8,0,0,1-2.64-3.27,15.49,15.49,0,0,1-1.33-4.82h7.57v-4H18.88l-.09,1.63s0,.22,0,.55a21.9,21.9,0,0,0,.81,5.78,13.37,13.37,0,0,0,4.95,7.47,12.47,12.47,0,0,0,7.1,2.12Z"/>
    <path fill="#fbe28b" d="M31.65,20.76C45,20.76,45,.17,45,0H30.46V15a8.5,8.5,0,0,0,.1,1.66A14.42,14.42,0,0,0,31.65,20.76Z"/>
  </symbol>
    <symbol id="capturingpieces" viewBox="0 0 90 70"><rect fill="none" width="90" height="70"/><path fill="#575452" d="M55.59,53,55.24,53,51.89,24.68l.38-.14c3.21-1.19,4.83-3.15,5.27-6.36l.8-9.82s-4.6-1.86-7-1.86H51l-2.65,8.25h-3L43.87,5.44A47.74,47.74,0,0,0,38.68,5h0a47.76,47.76,0,0,0-5.2.44L32,14.75H29L26.31,6.5H26c-2.39,0-7,1.86-7,1.86l.8,9.81c.43,3.21,2.05,5.18,5.27,6.37l.37.14L22.09,53l-.23,0C16.65,53,15,59.83,15,65H62.29C62.31,59.83,60.79,53,55.59,53Z"/><path opacity="0.2" fill="#fff" d="M52.06,56.09a35.61,35.61,0,0,1,9.11,1.68,8.76,8.76,0,0,0-2.08-3.35,14.55,14.55,0,0,0-3.35-1.37l-.15,0L55.24,53v-.05A29,29,0,0,0,50,52.09L22.09,53l-.23,0c-2.8,0-4.56,2-5.59,4.63a39.93,39.93,0,0,1,9.57-1.51Z"/><path opacity="0.3" fill="#fff" d="M23.77,6.82A38.18,38.18,0,0,0,19,8.36l.8,9.81a7.39,7.39,0,0,0,1.79,4.14C21.48,21.52,20.1,11,23.77,6.82ZM39.17,5h-.51a47.76,47.76,0,0,0-5.2.44l-1.4,8.86C32.37,13.21,34.46,6.45,39.17,5ZM54.25,7a12.11,12.11,0,0,0-2.9-.49H51l-2.44,7.62C49.24,12.84,51.45,8.85,54.25,7Z"/><path opacity="0.2" fill="#575452" d="M55.59,53,55.24,53,51.89,24.68l.38-.14c3.21-1.19,4.83-3.15,5.27-6.36l.78-9.63V8.48l-.56-.35c-.58-.22-1.52-.56-2.55-.87-.81,4.9-1.88,11.94-4.2,14a10.91,10.91,0,0,1-3.91,2.47c-.65-.08-1.34-.16-2.09-.23-6.83-.61-16.76,1.32-16.76,1.32s10.06-.61,15.2,5.77a16,16,0,0,1,1.35,2.12h-10L26.92,65H62.29C62.31,59.83,60.79,53,55.59,53Z"/><path fill="#d2ceb4" d="M74.72,58.55a8.14,8.14,0,0,0-12.87-8.41l-1.68-4.76L60,45l-.37-.09a7.19,7.19,0,0,0-3.28-.08l0,.13,0,.2-.1.41-.86,3.47c-1.89-.66-6.48-2.36-8.82-9.51-1.05-3.2-4-5.62-8-6.62l-.69-.17-.17.69-7.46,29.9-.17.69.69.45A10.69,10.69,0,0,0,40.9,62.11c5.42-5.21,10.28-4.56,12.25-4.26l-.87,3.47-.1.41,0,.2,0,.13A7.27,7.27,0,0,0,55,63.52l.37.09.29-.25,3.72-3.42a8.14,8.14,0,0,0,15.31-1.39Z"/><path opacity="0.15" fill="#575452" d="M62.67,61.09c-2.21-2.57-1.92-6.43-1.92-6.43l-1.14,4.57c-.06.05-3.84,2.47-5.15-1.32l3.3-13.2h-.07a5.13,5.13,0,0,0-1.3.14l0,.13,0,.2-.1.41-.86,3.47-.12,0-.12.49s-5.81,3.38-10.3,6.27c-3.4,2.18-5.33,6.24-6,7.87a9.9,9.9,0,0,0,2.09-1.52c5.42-5.21,10.28-4.56,12.25-4.26l-.87,3.47-.1.41,0,.2,0,.13A7.27,7.27,0,0,0,55,63.52l.36.09.22-.19.08-.06,3.72-3.42a8.12,8.12,0,0,0,14.12,1.23l0-.05C71.34,63.71,65.75,64.68,62.67,61.09Z"/><path fill="#ebe8ce" d="M61.87,50.19l0,0h0l-1.68-4.76L60,45l-.32-.07-.93,3.73A24.19,24.19,0,0,1,61.87,50.19ZM68.79,48.69a7.88,7.88,0,0,0-2.36-.22l-.18.06c6.57,2.17,8.8,7.27,8.44,10.12a.38.38,0,0,1,0-.1A8.15,8.15,0,0,0,68.79,48.69ZM38.53,33c4.54,2.73,4.65,5,6.52,9.61,1.24,3.06,6.84,4.83,6.84,4.83s0-.09-.25-.32a14.89,14.89,0,0,1-5.11-7.61,9.4,9.4,0,0,0-4.14-5C40.16,33.31,38,32.72,38.53,33Z"/></symbol>
    <symbol id="checkmate" viewBox="0 0 90 70"><rect fill="none" width="90" height="70"/><path opacity="0.4" fill="#575452" d="M12,62.19C12,63.74,24.81,65,40.6,65s28.59-1.26,28.59-2.81-12.8-2.8-28.59-2.8S12,60.64,12,62.19Z"/><path fill="#575452" d="M63.72,55.09A13.35,13.35,0,0,0,65.4,44.82a18.4,18.4,0,0,0-4.65-9.09l5-2.38,1.08,4.78,7.37-1.65-1.11-4.92L78,30.46,76.32,23.1l-4.91,1.09-1.1-4.9-7.37,1.65L64,25.72l-5.51,0a18.44,18.44,0,0,0,.31-10.2A13.36,13.36,0,0,0,52.9,6.93,14.18,14.18,0,0,0,42.29,5.4C36.72,6.65,34,11,31.32,15.22a31.23,31.23,0,0,1-5.67,7.27c-2.74-5.38-6.6-4.51-11-3.5l-.66.15-.82.18.18.83,9,39.93.18.82.82-.18.66-.15c4.44-1,8.3-1.84,8.46-7.88a30.82,30.82,0,0,1,8.24,4.15c4.21,2.66,8.55,5.42,14.12,4.16A14.09,14.09,0,0,0,63.72,55.09ZM50.61,49.16c-2.72.21-5.91-3.16-9.81-5-.21-1.33-.33-2.14-.53-3.27l10.2-2.29s3.07,2.74,3.67,5.38C54.14,44,55,48.81,50.61,49.16ZM49,21.12c.6,2.63-1,6.44-1,6.44l-10.2,2.29c-.3-1.1-.54-1.89-.92-3.18,2.73-3.36,4.18-7.76,6.72-8.73C47.75,16.37,49,21.12,49,21.12Z"/><path opacity="0.2" fill="#fff" d="M76.32,23.1l-4.91,1.09-1.1-4.9-6.49,1.45,1.08,4.65c3.22.36,8.37.27,12.08,4.43a4.8,4.8,0,0,0,.75.7l.25-.06ZM52.9,6.93A14.18,14.18,0,0,0,42.29,5.4C36.72,6.65,34,11,31.32,15.22a34.47,34.47,0,0,1-5.05,6.66l1.61,4c5-3.62,9.58-5.54,13.63-6.2a5.23,5.23,0,0,1,2.08-1.74,3.66,3.66,0,0,1,4.88,1.92,18.89,18.89,0,0,1,10,5.84L59,24a19.48,19.48,0,0,0-.16-8.51A13.36,13.36,0,0,0,52.9,6.93ZM25.65,22.49c-2.74-5.38-6.6-4.51-11-3.5l-.66.15-.82.18.18.83L14.65,26l.83-.13s9.48-1.26,13.15,10l-3-13.37C25.5,22.64,25.8,22.36,25.65,22.49Z"/><path opacity="0.2" fill="#575452" d="M47,56.87,32.08,47.45l.35,5.24a30.82,30.82,0,0,1,8.24,4.15c4.21,2.66,8.55,5.42,14.12,4.16a14.09,14.09,0,0,0,8.93-5.91,11,11,0,0,0,.9-1.78C62.74,55,55.5,60.83,47,56.87Z"/></symbol>
    <symbol id="mostpieces" viewBox="0 0 90 70"><rect fill="none" width="90" height="70"/><path fill="#d1cdb3" d="M29.26,33.14A23.74,23.74,0,0,1,30,27.21l-2.34-2.93a7.13,7.13,0,0,0-5.36-2.47H18.41V18.58c0-1-.71-1.27-1.62-.51L10.4,23.33a1.19,1.19,0,0,0-.4.88,1.11,1.11,0,0,0,.4.85l6.39,5.33c.91.74,1.62.49,1.62-.59V26.15h3.76c1.28,0,2.27,1,3.57,2.57l3.53,4.77C29.27,33.38,29.26,33.25,29.26,33.14ZM27.63,45.72l3.31-4.13c-.47-1.64-1-3.62-1.36-5.49l-3.84,5.18c-1.3,1.56-2.29,2.57-3.57,2.57H18.41V40.2c0-1.08-.71-1.33-1.62-.59L10.4,44.94a1.11,1.11,0,0,0-.4.85,1.19,1.19,0,0,0,.4.88l6.39,5.26c.91.76,1.62.51,1.62-.51V48.19h3.86A7.13,7.13,0,0,0,27.63,45.72ZM79.6,23.33l-6.39-5.26c-.91-.76-1.62-.51-1.62.51v3.23H67.73a7.13,7.13,0,0,0-5.36,2.47l-1.55,1.94,1.66,2.33A5.44,5.44,0,0,1,63.3,30l1-1.29c1.3-1.56,2.29-2.57,3.57-2.57h3.76V29.8c0,1.08.71,1.33,1.62.59l6.39-5.33a1.11,1.11,0,0,0,.4-.85A1.19,1.19,0,0,0,79.6,23.33ZM79.6,44.94l-6.39-5.33c-.91-.74-1.62-.49-1.62.59v3.65H67.83c-1.28,0-2.27-1-3.57-2.57l-3.51-4.74A14.09,14.09,0,0,1,56.08,38l6.29,7.69a7.13,7.13,0,0,0,5.36,2.47h3.86v3.23c0,1,.71,1.27,1.62.51l6.39-5.26a1.19,1.19,0,0,0,.4-.88A1.11,1.11,0,0,0,79.6,44.94ZM50.2,8.41h3.65v3.76a2.41,2.41,0,0,1-.23,1,4.69,4.69,0,0,1,.24.75V14l.31,1.47a4.55,4.55,0,0,0,1,1,8.2,8.2,0,0,1,.84.81,7.24,7.24,0,0,0,2.12-5V8.41h3.23c1,0,1.27-.71.51-1.62L56.67.4a1.19,1.19,0,0,0-.88-.4,1.11,1.11,0,0,0-.85.4L49.61,6.79C48.87,7.7,49.12,8.41,50.2,8.41ZM28.58,8.41h3.23v3.86a7.13,7.13,0,0,0,2.47,5.36l.93.74a17,17,0,0,1,3.66-2.51l-.15-.12c-1.56-1.3-2.57-2.29-2.57-3.57V8.41H39.8c1.08,0,1.33-.71.59-1.62L35.06.4a1.11,1.11,0,0,0-.85-.4,1.19,1.19,0,0,0-.88.4L28.07,6.79C27.31,7.7,27.56,8.41,28.58,8.41ZM61.42,61.59H58.19V57.73a7.42,7.42,0,0,0-.84-3.31H51.48c1.44,1.22,2.37,2.19,2.37,3.41v3.76H50.2c-1.08,0-1.33.71-.59,1.62l5.33,6.39a1.11,1.11,0,0,0,.85.4,1.19,1.19,0,0,0,.88-.4l5.26-6.39C62.69,62.3,62.44,61.59,61.42,61.59ZM39.8,61.59H36.15V57.83c0-1.22.93-2.19,2.37-3.41H32.65a7.42,7.42,0,0,0-.84,3.31v3.86H28.58c-1,0-1.27.71-.51,1.62l5.26,6.39a1.19,1.19,0,0,0,.88.4,1.11,1.11,0,0,0,.85-.4l5.33-6.39C41.13,62.3,40.88,61.59,39.8,61.59Z"/><path fill="#575452" d="M34.76,44.4A10.91,10.91,0,0,0,34.53,43c-.32-1.59-2.16-7-2.16-9.85,0-10.94,7.38-15.74,14-16.19l3.38-3.37a1.32,1.32,0,0,1,1.1,1.07l.39,1.83a6,6,0,0,0,2,2.42,4.6,4.6,0,0,1,1.47,2.17c.79,2,.85,3.06,2.21,5.05L60,30.42a2.15,2.15,0,0,1-.16,3c-1.12,1-4.32,1.74-4.61,1.47-1.23-1.19-1.3-3-3.92-3-2,0-3.82-1.86-4.83-2.91l-1-1.16a4.18,4.18,0,0,0-1,3.62,5,5,0,0,0,.68,1.41A10.82,10.82,0,0,0,47.35,35c1.93,1.56,5.31,4.27,5.68,8l.07,1.32c5.21.75,5.18,4.63,5.18,4.63v2.37H30.09V48.94S30.06,45.31,34.76,44.4Z"/></symbol>
    <symbol id="choosing" viewBox="0 0 90 70"><rect fill="none" width="90" height="70"/><path fill="#d1cdb3" d="M78.25,16.58l-7.69-6.34c-1.1-.92-2-.62-2,.61v3.9H64A10.82,10.82,0,0,0,56,18.66c-.33.42-.82,1-1.32,1.62a8.3,8.3,0,0,0,1,2.39l1.83,2.52L59,23.27c1.63-2,3.14-3.3,5-3.3h4.65v4.4c0,1.3.85,1.6,2,.71l7.69-6.42a1.35,1.35,0,0,0,.49-1A1.44,1.44,0,0,0,78.25,16.58ZM78.25,45.43,70.56,39c-1.1-.89-2-.6-2,.71v4.4H64.07c-1.53,0-2.73-1.22-4.3-3.1l-1.2-1.57a24.06,24.06,0,0,1-5.42,1.48l4.35,5.43a8.57,8.57,0,0,0,6.46,3h4.65v3.89c0,1.24.85,1.54,2,.62l7.69-6.34a1.44,1.44,0,0,0,.49-1.06A1.39,1.39,0,0,0,78.25,45.43Z"/><path fill="#565352" d="M51.76,38.74c-1.95-1.89-2-4.8-6.21-4.81-3.2,0-6-2.94-7.63-4.61l-1.59-1.83c-.61.74-2.32,3.1-1.56,5.74a7.69,7.69,0,0,0,1.06,2.22,17.11,17.11,0,0,0,3.48,3.49c3,2.47,8.39,6.75,9,12.6l.2,4s-29,2.92-29,.42A19.83,19.83,0,0,0,19,51.54C18.5,49,15.59,40.55,15.59,36c0-17.32,11.69-24.92,22.14-25.62L43.07,5a2.11,2.11,0,0,1,1.74,1.69l.61,2.91a9.85,9.85,0,0,0,3.22,3.83A7.25,7.25,0,0,1,51,16.85c1.24,3.18,1.34,4.86,3.5,8l4.84,6.8a3.4,3.4,0,0,1-.26,4.77C57.29,37.93,52.21,39.17,51.76,38.74ZM22.85,53.37H46.17c11.63,0,11.58,7.75,11.58,7.75V65H11.26V61.12S11.21,53.37,22.85,53.37Z"/><path fill="#8b8987" d="M59.31,31.65l-4.84-6.8c-2.16-3.14-2.26-4.82-3.5-8a7.25,7.25,0,0,0-2.33-3.42A9.85,9.85,0,0,1,45.42,9.6l-.61-2.91a2.38,2.38,0,0,0-1.17-1.54,2.08,2.08,0,0,0-.36-.06S41,10.43,44.36,12.5c6.38,4,5.22,8.82,7.07,11.29.91,1.23,7.38,9.2,8.63,10.75A3.6,3.6,0,0,0,59.31,31.65ZM56.65,57.75c-1.3-2.1-4.16-4.38-10.48-4.38H22.85c-6.14,0-9,2.15-10.36,4.19,1.5-.55,6.45-1.67,21.86-1.67C51.92,55.89,55.89,57.35,56.65,57.75Z"/><path opacity="0.2" fill="#565352" d="M44.41,33.8a6.22,6.22,0,0,0,1.14.13c4.16,0,4.26,2.92,6.21,4.81a1.64,1.64,0,0,0,1,0,16.84,16.84,0,0,1-2.41-4.55C48.9,30,47.94,32,44.41,33.8ZM33.82,23.16c-.75-1.44-.9,1.25-.92,2.51a27.16,27.16,0,0,0,1.82,7.27,6.77,6.77,0,0,1,1.61-5.45l.13.15a1.11,1.11,0,0,0,0-.13S34.56,24.59,33.82,23.16Z"/></symbol>
</svg>
