<svg xmlns="http://www.w3.org/2000/svg" style="display: none;">
  
  <symbol id="board" viewBox="0 0 90 70"><rect fill="none" width="90" height="70"/><rect fill="#95704d" x="15" y="5" width="60" height="60" rx="5.67" ry="5.67"/><rect fill="#fbefc4" x="45" y="8.33" width="13.33" height="13.33"/><rect fill="#fbefc4" x="58.33" y="21.67" width="13.33" height="13.34"/><rect fill="#fbefc4" x="18.33" y="8.33" width="13.34" height="13.33"/><rect fill="#fbefc4" x="31.67" y="21.67" width="13.33" height="13.34"/><rect fill="#fbefc4" x="18.33" y="35" width="13.34" height="13.33"/><rect fill="#fbefc4" x="31.67" y="48.33" width="13.33" height="13.34"/><rect fill="#fbefc4" x="45" y="35" width="13.33" height="13.33"/><rect fill="#fbefc4" x="58.33" y="48.33" width="13.33" height="13.34"/></symbol>
  <symbol id="handpawn" viewBox="0 0 90 70"><rect fill="none" width="90" height="70"/><path fill="#d3aa84" d="M39.18,35.25c0,.41,0,4.17,4,4.18a10.62,10.62,0,0,0,4.66-1.18l24.42-11A3.36,3.36,0,0,0,74,24.36V10.29a3.15,3.15,0,0,0-2.74-2.7C65.67,6.53,55.93,5,50.8,5c-6.66,0-8,.49-12.2,1.6a40.3,40.3,0,0,0-7.68,3.34s-7.29,3.35-9.73,6.31C18.88,19,15.65,24.84,16,26.52a3.2,3.2,0,0,0,3,2.62c2.48-.12,8.4-7.46,8.4-7.46s7.87-3.62,11.74-3.62h7.74c1.94,0,4.6,1.95,5.7,4.17.87,1.73-10.12,8.66-11.5,9.5a4.6,4.6,0,0,0-1.76,2.7Z"/><path fill="#666564" d="M39.36,34.42a10.1,10.1,0,0,0,.1-1.35,8.71,8.71,0,1,0-13.91,7C25,40.31,24,41,24,41.77v1.94a1.89,1.89,0,0,0,1.14,1.62l-3.07,8.06a5.53,5.53,0,0,0-3.88,1.93,7.61,7.61,0,0,0-1.93,3.88v3.87A2,2,0,0,0,18.17,65H43.34a2,2,0,0,0,1.93-1.93V59.2a7.61,7.61,0,0,0-1.93-3.88,5.53,5.53,0,0,0-3.88-1.93l-3.07-8.06a1.89,1.89,0,0,0,1.14-1.62V41.77c0-.82-1-1.46-1.58-1.75a8.73,8.73,0,0,0,3.23-4.77Z"/><path fill="#8b8987" d="M18.17,63.33A.48.48,0,0,1,17.9,63V59.2h0a6.45,6.45,0,0,1,1.51-2.77,3.87,3.87,0,0,1,2.63-1.37l1.12,0L23.6,54l3.6-9.43-1.29-.69a1,1,0,0,1-.28-.2l0-1.85s0,0,0,0a5.33,5.33,0,0,0,.65-.36l2.33-1.22-2.11-1.59a7,7,0,0,1-2.83-5.61,7,7,0,0,1,7-7,7.55,7.55,0,0,1,3.76,7.05,7.88,7.88,0,0,1-.08,1.09l-.17.75a7,7,0,0,1-2.59,3.77l-2.11,1.59s.92,1.7,1,1.76l-.06,1.68-1.09.84s-.29,6.73-.28,10.51c-6,.6-4.18,8.27-4.18,8.27Z"/><path fill="#dad8d6" d="M25.38,33.07a5.39,5.39,0,0,1,4.88-5.36C31.91,28.92,25.38,34.75,25.38,33.07Z"/><path fill="#a88865" d="M74,24.36V13.22A35.1,35.1,0,0,1,67,26L56.34,34.41h0l15.88-7.13A3.36,3.36,0,0,0,74,24.36Z"/></symbol>
  <symbol id="openingprincipales" viewBox="0 0 90 70"><rect fill="none" width="90" height="70"/><path fill="#575452" d="M74.16,26,46.68.65a2.49,2.49,0,0,0-3.36,0L15.84,26a2.46,2.46,0,0,0-.14,3.49l5.82,6.12a2.48,2.48,0,0,0,3.5.14l7.8-7.18V67.46H57.18V28.53L65,35.71a2.48,2.48,0,0,0,3.5-.14l5.82-6.12A2.46,2.46,0,0,0,74.16,26Z"/><g opacity="0.2"><path d="M46.84,25.16a9,9,0,0,0-5.52,16l-4.63,3.07-.36.23v.42a8,8,0,0,0,.78,3.52h4.77c-.19,2.18-.78,7.53-7.78,11.94-3.13,2,24.43-.76,24.43-.76-5.55-4.8-6.47-9-6.67-11.2h4.77a8.09,8.09,0,0,0,.54-3.52V44.4l-.12-.23-4.65-3.06a8.94,8.94,0,0,0-5.57-15.95Z"/></g><path fill="#d2ceb4" d="M44.77,23.79a8.94,8.94,0,0,0-5.52,16l-4.63,3.07-.35.23v.42A8,8,0,0,0,35.05,47h4.77c-.19,2.18-.77,7.53-7.78,11.95-3.13,2-4.92,5.72-4.91,10.28V70h.78l33.89-.07h.78l.29-.85a11.75,11.75,0,0,0-5.25-10.19C50.62,54.51,50,49.16,49.8,47h4.77a7.82,7.82,0,0,0,.77-3.52V43L55,42.79l-4.64-3a8.95,8.95,0,0,0-5.58-16Z"/><path opacity="0.15" d="M50.71,36c-2.15,3-6.35,3.77-6.35,3.77h5.18c.07,0,3.67,3.44,0,5.84l-15,0v.07A6.06,6.06,0,0,0,35.05,47h4.77s0,.09,0,.14h.55s5.16,5.27,9.45,9.3c3.23,3,8.08,4,10,4.28a10.49,10.49,0,0,0-2.18-1.82C50.62,54.51,50,49.16,49.8,47h4.77a7.82,7.82,0,0,0,.77-3.52V43l-.26-.18L55,42.79l-4.64-3a8.94,8.94,0,0,0-2.47-15.39h-.06C51.17,26,53.71,31.7,50.71,36Z"/><path fill="#ebe8ce" d="M39.29,39.73l0,0h0l-4.63,3.07-.35.23v.36H38.5A27.52,27.52,0,0,1,39.29,39.73Z"/><path fill="#ebe8ce" d="M35.84,32.75a8.85,8.85,0,0,0,.4,2.57l.1.18c.57-7.59,5.4-11.33,8.54-11.71h-.11A9,9,0,0,0,35.84,32.75Z"/><path fill="#ebe8ce" d="M27.25,69.21c1.69-5.57,4.08-6.3,8.5-9.52,2.93-2.14,3.31-8.6,3.31-8.6s-.08.06-.27.36A16.36,16.36,0,0,1,32,58.94a10.3,10.3,0,0,0-4.25,5.77C27.11,67.4,27.06,69.86,27.25,69.21Z"/></symbol>
  <symbol id="trophy" viewBox="0 0 90 70"><rect fill="none" width="90" height="70"/><path fill="#95704d" d="M26.64,46.67H63.36A4.63,4.63,0,0,1,68,51.3V65.37A4.63,4.63,0,0,1,63.36,70H26.64A4.63,4.63,0,0,1,22,65.37V51.3A4.64,4.64,0,0,1,26.64,46.67Z"/><rect fill="#fcd157" x="32.33" y="52.5" width="25.26" height="6.32"/><path fill="#fed859" d="M71.21,4.84l-.1-1.63H59.54V0H30.46V3.22H18.88l-.09,1.62s0,.22,0,.55a20.49,20.49,0,0,0,1.79,8.41,12.33,12.33,0,0,0,4,4.84,12.4,12.4,0,0,0,7.1,2.12A14.62,14.62,0,0,0,41,29v4.88a8.11,8.11,0,0,1-8.11,8h-.51v4.81H57.59V41.86h-.51A8.11,8.11,0,0,1,49,33.75V29a14.58,14.58,0,0,0,9.39-8.23,12.4,12.4,0,0,0,7.1-2.12,13.34,13.34,0,0,0,5-7.47,21.43,21.43,0,0,0,.81-5.78C71.22,5.06,71.21,4.87,71.21,4.84ZM26.86,15.34a9.36,9.36,0,0,1-3.39-5.27,17.24,17.24,0,0,1-.58-2.83h7.57V15a13,13,0,0,0,.1,1.66A7.85,7.85,0,0,1,26.86,15.34Zm38.92-3.27a8.18,8.18,0,0,1-2.64,3.27,7.85,7.85,0,0,1-3.69,1.32A15.11,15.11,0,0,0,59.54,15V7.24h7.58A15.88,15.88,0,0,1,65.78,12.07Z"/><path fill="#f2ac23" d="M41,29v4.88a8.11,8.11,0,0,1-8.11,8h-.51v4.81H57.59V41.86h-.51A8.11,8.11,0,0,1,49,33.75V29Z"/><path fill="#fcd157" d="M41,30.35v3.5a8.11,8.11,0,0,1-8.11,8h-.51v4.81H57.59V41.86h-.51C45.6,41.86,41,30.35,41,30.35Z"/><path fill="#f2ac23" d="M58.36,20.76a12.4,12.4,0,0,0,7.1-2.12,13.34,13.34,0,0,0,5-7.47,21.43,21.43,0,0,0,.81-5.78c0-.33,0-.52,0-.55l-.1-1.63H59.54v4h7.58a15.88,15.88,0,0,1-1.34,4.83,8.18,8.18,0,0,1-2.64,3.27,7.85,7.85,0,0,1-3.69,1.32Z"/><path fill="#f2ac23" d="M30.56,16.66a7.6,7.6,0,0,1-3.7-1.32,8,8,0,0,1-2.64-3.27,15.49,15.49,0,0,1-1.33-4.82h7.57v-4H18.88l-.09,1.63s0,.22,0,.55a21.9,21.9,0,0,0,.81,5.78,13.37,13.37,0,0,0,4.95,7.47,12.47,12.47,0,0,0,7.1,2.12Z"/><path fill="#fbe28b" d="M31.65,20.76C45,20.76,45,.17,45,0H30.46V15a8.5,8.5,0,0,0,.1,1.66A14.42,14.42,0,0,0,31.65,20.76Z"/></symbol>
  <symbol id="capturingpieces" viewBox="0 0 90 70"><rect fill="none" width="90" height="70"/><path fill="#575452" d="M55.59,53,55.24,53,51.89,24.68l.38-.14c3.21-1.19,4.83-3.15,5.27-6.36l.8-9.82s-4.6-1.86-7-1.86H51l-2.65,8.25h-3L43.87,5.44A47.74,47.74,0,0,0,38.68,5h0a47.76,47.76,0,0,0-5.2.44L32,14.75H29L26.31,6.5H26c-2.39,0-7,1.86-7,1.86l.8,9.81c.43,3.21,2.05,5.18,5.27,6.37l.37.14L22.09,53l-.23,0C16.65,53,15,59.83,15,65H62.29C62.31,59.83,60.79,53,55.59,53Z"/><path opacity="0.2" fill="#fff" d="M52.06,56.09a35.61,35.61,0,0,1,9.11,1.68,8.76,8.76,0,0,0-2.08-3.35,14.55,14.55,0,0,0-3.35-1.37l-.15,0L55.24,53v-.05A29,29,0,0,0,50,52.09L22.09,53l-.23,0c-2.8,0-4.56,2-5.59,4.63a39.93,39.93,0,0,1,9.57-1.51Z"/><path opacity="0.3" fill="#fff" d="M23.77,6.82A38.18,38.18,0,0,0,19,8.36l.8,9.81a7.39,7.39,0,0,0,1.79,4.14C21.48,21.52,20.1,11,23.77,6.82ZM39.17,5h-.51a47.76,47.76,0,0,0-5.2.44l-1.4,8.86C32.37,13.21,34.46,6.45,39.17,5ZM54.25,7a12.11,12.11,0,0,0-2.9-.49H51l-2.44,7.62C49.24,12.84,51.45,8.85,54.25,7Z"/><path opacity="0.2" fill="#575452" d="M55.59,53,55.24,53,51.89,24.68l.38-.14c3.21-1.19,4.83-3.15,5.27-6.36l.78-9.63V8.48l-.56-.35c-.58-.22-1.52-.56-2.55-.87-.81,4.9-1.88,11.94-4.2,14a10.91,10.91,0,0,1-3.91,2.47c-.65-.08-1.34-.16-2.09-.23-6.83-.61-16.76,1.32-16.76,1.32s10.06-.61,15.2,5.77a16,16,0,0,1,1.35,2.12h-10L26.92,65H62.29C62.31,59.83,60.79,53,55.59,53Z"/><path fill="#d2ceb4" d="M74.72,58.55a8.14,8.14,0,0,0-12.87-8.41l-1.68-4.76L60,45l-.37-.09a7.19,7.19,0,0,0-3.28-.08l0,.13,0,.2-.1.41-.86,3.47c-1.89-.66-6.48-2.36-8.82-9.51-1.05-3.2-4-5.62-8-6.62l-.69-.17-.17.69-7.46,29.9-.17.69.69.45A10.69,10.69,0,0,0,40.9,62.11c5.42-5.21,10.28-4.56,12.25-4.26l-.87,3.47-.1.41,0,.2,0,.13A7.27,7.27,0,0,0,55,63.52l.37.09.29-.25,3.72-3.42a8.14,8.14,0,0,0,15.31-1.39Z"/><path opacity="0.15" fill="#575452" d="M62.67,61.09c-2.21-2.57-1.92-6.43-1.92-6.43l-1.14,4.57c-.06.05-3.84,2.47-5.15-1.32l3.3-13.2h-.07a5.13,5.13,0,0,0-1.3.14l0,.13,0,.2-.1.41-.86,3.47-.12,0-.12.49s-5.81,3.38-10.3,6.27c-3.4,2.18-5.33,6.24-6,7.87a9.9,9.9,0,0,0,2.09-1.52c5.42-5.21,10.28-4.56,12.25-4.26l-.87,3.47-.1.41,0,.2,0,.13A7.27,7.27,0,0,0,55,63.52l.36.09.22-.19.08-.06,3.72-3.42a8.12,8.12,0,0,0,14.12,1.23l0-.05C71.34,63.71,65.75,64.68,62.67,61.09Z"/><path fill="#ebe8ce" d="M61.87,50.19l0,0h0l-1.68-4.76L60,45l-.32-.07-.93,3.73A24.19,24.19,0,0,1,61.87,50.19ZM68.79,48.69a7.88,7.88,0,0,0-2.36-.22l-.18.06c6.57,2.17,8.8,7.27,8.44,10.12a.38.38,0,0,1,0-.1A8.15,8.15,0,0,0,68.79,48.69ZM38.53,33c4.54,2.73,4.65,5,6.52,9.61,1.24,3.06,6.84,4.83,6.84,4.83s0-.09-.25-.32a14.89,14.89,0,0,1-5.11-7.61,9.4,9.4,0,0,0-4.14-5C40.16,33.31,38,32.72,38.53,33Z"/></symbol>
  <symbol id="checkmate" viewBox="0 0 90 70"><rect fill="none" width="90" height="70"/><path opacity="0.4" fill="#575452" d="M12,62.19C12,63.74,24.81,65,40.6,65s28.59-1.26,28.59-2.81-12.8-2.8-28.59-2.8S12,60.64,12,62.19Z"/><path fill="#575452" d="M63.72,55.09A13.35,13.35,0,0,0,65.4,44.82a18.4,18.4,0,0,0-4.65-9.09l5-2.38,1.08,4.78,7.37-1.65-1.11-4.92L78,30.46,76.32,23.1l-4.91,1.09-1.1-4.9-7.37,1.65L64,25.72l-5.51,0a18.44,18.44,0,0,0,.31-10.2A13.36,13.36,0,0,0,52.9,6.93,14.18,14.18,0,0,0,42.29,5.4C36.72,6.65,34,11,31.32,15.22a31.23,31.23,0,0,1-5.67,7.27c-2.74-5.38-6.6-4.51-11-3.5l-.66.15-.82.18.18.83,9,39.93.18.82.82-.18.66-.15c4.44-1,8.3-1.84,8.46-7.88a30.82,30.82,0,0,1,8.24,4.15c4.21,2.66,8.55,5.42,14.12,4.16A14.09,14.09,0,0,0,63.72,55.09ZM50.61,49.16c-2.72.21-5.91-3.16-9.81-5-.21-1.33-.33-2.14-.53-3.27l10.2-2.29s3.07,2.74,3.67,5.38C54.14,44,55,48.81,50.61,49.16ZM49,21.12c.6,2.63-1,6.44-1,6.44l-10.2,2.29c-.3-1.1-.54-1.89-.92-3.18,2.73-3.36,4.18-7.76,6.72-8.73C47.75,16.37,49,21.12,49,21.12Z"/><path opacity="0.2" fill="#fff" d="M76.32,23.1l-4.91,1.09-1.1-4.9-6.49,1.45,1.08,4.65c3.22.36,8.37.27,12.08,4.43a4.8,4.8,0,0,0,.75.7l.25-.06ZM52.9,6.93A14.18,14.18,0,0,0,42.29,5.4C36.72,6.65,34,11,31.32,15.22a34.47,34.47,0,0,1-5.05,6.66l1.61,4c5-3.62,9.58-5.54,13.63-6.2a5.23,5.23,0,0,1,2.08-1.74,3.66,3.66,0,0,1,4.88,1.92,18.89,18.89,0,0,1,10,5.84L59,24a19.48,19.48,0,0,0-.16-8.51A13.36,13.36,0,0,0,52.9,6.93ZM25.65,22.49c-2.74-5.38-6.6-4.51-11-3.5l-.66.15-.82.18.18.83L14.65,26l.83-.13s9.48-1.26,13.15,10l-3-13.37C25.5,22.64,25.8,22.36,25.65,22.49Z"/><path opacity="0.2" fill="#575452" d="M47,56.87,32.08,47.45l.35,5.24a30.82,30.82,0,0,1,8.24,4.15c4.21,2.66,8.55,5.42,14.12,4.16a14.09,14.09,0,0,0,8.93-5.91,11,11,0,0,0,.9-1.78C62.74,55,55.5,60.83,47,56.87Z"/></symbol>
  <symbol id="mostpieces" viewBox="0 0 90 70"><rect fill="none" width="90" height="70"/><path fill="#d1cdb3" d="M29.26,33.14A23.74,23.74,0,0,1,30,27.21l-2.34-2.93a7.13,7.13,0,0,0-5.36-2.47H18.41V18.58c0-1-.71-1.27-1.62-.51L10.4,23.33a1.19,1.19,0,0,0-.4.88,1.11,1.11,0,0,0,.4.85l6.39,5.33c.91.74,1.62.49,1.62-.59V26.15h3.76c1.28,0,2.27,1,3.57,2.57l3.53,4.77C29.27,33.38,29.26,33.25,29.26,33.14ZM27.63,45.72l3.31-4.13c-.47-1.64-1-3.62-1.36-5.49l-3.84,5.18c-1.3,1.56-2.29,2.57-3.57,2.57H18.41V40.2c0-1.08-.71-1.33-1.62-.59L10.4,44.94a1.11,1.11,0,0,0-.4.85,1.19,1.19,0,0,0,.4.88l6.39,5.26c.91.76,1.62.51,1.62-.51V48.19h3.86A7.13,7.13,0,0,0,27.63,45.72ZM79.6,23.33l-6.39-5.26c-.91-.76-1.62-.51-1.62.51v3.23H67.73a7.13,7.13,0,0,0-5.36,2.47l-1.55,1.94,1.66,2.33A5.44,5.44,0,0,1,63.3,30l1-1.29c1.3-1.56,2.29-2.57,3.57-2.57h3.76V29.8c0,1.08.71,1.33,1.62.59l6.39-5.33a1.11,1.11,0,0,0,.4-.85A1.19,1.19,0,0,0,79.6,23.33ZM79.6,44.94l-6.39-5.33c-.91-.74-1.62-.49-1.62.59v3.65H67.83c-1.28,0-2.27-1-3.57-2.57l-3.51-4.74A14.09,14.09,0,0,1,56.08,38l6.29,7.69a7.13,7.13,0,0,0,5.36,2.47h3.86v3.23c0,1,.71,1.27,1.62.51l6.39-5.26a1.19,1.19,0,0,0,.4-.88A1.11,1.11,0,0,0,79.6,44.94ZM50.2,8.41h3.65v3.76a2.41,2.41,0,0,1-.23,1,4.69,4.69,0,0,1,.24.75V14l.31,1.47a4.55,4.55,0,0,0,1,1,8.2,8.2,0,0,1,.84.81,7.24,7.24,0,0,0,2.12-5V8.41h3.23c1,0,1.27-.71.51-1.62L56.67.4a1.19,1.19,0,0,0-.88-.4,1.11,1.11,0,0,0-.85.4L49.61,6.79C48.87,7.7,49.12,8.41,50.2,8.41ZM28.58,8.41h3.23v3.86a7.13,7.13,0,0,0,2.47,5.36l.93.74a17,17,0,0,1,3.66-2.51l-.15-.12c-1.56-1.3-2.57-2.29-2.57-3.57V8.41H39.8c1.08,0,1.33-.71.59-1.62L35.06.4a1.11,1.11,0,0,0-.85-.4,1.19,1.19,0,0,0-.88.4L28.07,6.79C27.31,7.7,27.56,8.41,28.58,8.41ZM61.42,61.59H58.19V57.73a7.42,7.42,0,0,0-.84-3.31H51.48c1.44,1.22,2.37,2.19,2.37,3.41v3.76H50.2c-1.08,0-1.33.71-.59,1.62l5.33,6.39a1.11,1.11,0,0,0,.85.4,1.19,1.19,0,0,0,.88-.4l5.26-6.39C62.69,62.3,62.44,61.59,61.42,61.59ZM39.8,61.59H36.15V57.83c0-1.22.93-2.19,2.37-3.41H32.65a7.42,7.42,0,0,0-.84,3.31v3.86H28.58c-1,0-1.27.71-.51,1.62l5.26,6.39a1.19,1.19,0,0,0,.88.4,1.11,1.11,0,0,0,.85-.4l5.33-6.39C41.13,62.3,40.88,61.59,39.8,61.59Z"/><path fill="#575452" d="M34.76,44.4A10.91,10.91,0,0,0,34.53,43c-.32-1.59-2.16-7-2.16-9.85,0-10.94,7.38-15.74,14-16.19l3.38-3.37a1.32,1.32,0,0,1,1.1,1.07l.39,1.83a6,6,0,0,0,2,2.42,4.6,4.6,0,0,1,1.47,2.17c.79,2,.85,3.06,2.21,5.05L60,30.42a2.15,2.15,0,0,1-.16,3c-1.12,1-4.32,1.74-4.61,1.47-1.23-1.19-1.3-3-3.92-3-2,0-3.82-1.86-4.83-2.91l-1-1.16a4.18,4.18,0,0,0-1,3.62,5,5,0,0,0,.68,1.41A10.82,10.82,0,0,0,47.35,35c1.93,1.56,5.31,4.27,5.68,8l.07,1.32c5.21.75,5.18,4.63,5.18,4.63v2.37H30.09V48.94S30.06,45.31,34.76,44.4Z"/></symbol>
  <symbol id="choosing" viewBox="0 0 90 70"><rect fill="none" width="90" height="70"/><path fill="#d1cdb3" d="M78.25,16.58l-7.69-6.34c-1.1-.92-2-.62-2,.61v3.9H64A10.82,10.82,0,0,0,56,18.66c-.33.42-.82,1-1.32,1.62a8.3,8.3,0,0,0,1,2.39l1.83,2.52L59,23.27c1.63-2,3.14-3.3,5-3.3h4.65v4.4c0,1.3.85,1.6,2,.71l7.69-6.42a1.35,1.35,0,0,0,.49-1A1.44,1.44,0,0,0,78.25,16.58ZM78.25,45.43,70.56,39c-1.1-.89-2-.6-2,.71v4.4H64.07c-1.53,0-2.73-1.22-4.3-3.1l-1.2-1.57a24.06,24.06,0,0,1-5.42,1.48l4.35,5.43a8.57,8.57,0,0,0,6.46,3h4.65v3.89c0,1.24.85,1.54,2,.62l7.69-6.34a1.44,1.44,0,0,0,.49-1.06A1.39,1.39,0,0,0,78.25,45.43Z"/><path fill="#565352" d="M51.76,38.74c-1.95-1.89-2-4.8-6.21-4.81-3.2,0-6-2.94-7.63-4.61l-1.59-1.83c-.61.74-2.32,3.1-1.56,5.74a7.69,7.69,0,0,0,1.06,2.22,17.11,17.11,0,0,0,3.48,3.49c3,2.47,8.39,6.75,9,12.6l.2,4s-29,2.92-29,.42A19.83,19.83,0,0,0,19,51.54C18.5,49,15.59,40.55,15.59,36c0-17.32,11.69-24.92,22.14-25.62L43.07,5a2.11,2.11,0,0,1,1.74,1.69l.61,2.91a9.85,9.85,0,0,0,3.22,3.83A7.25,7.25,0,0,1,51,16.85c1.24,3.18,1.34,4.86,3.5,8l4.84,6.8a3.4,3.4,0,0,1-.26,4.77C57.29,37.93,52.21,39.17,51.76,38.74ZM22.85,53.37H46.17c11.63,0,11.58,7.75,11.58,7.75V65H11.26V61.12S11.21,53.37,22.85,53.37Z"/><path fill="#8b8987" d="M59.31,31.65l-4.84-6.8c-2.16-3.14-2.26-4.82-3.5-8a7.25,7.25,0,0,0-2.33-3.42A9.85,9.85,0,0,1,45.42,9.6l-.61-2.91a2.38,2.38,0,0,0-1.17-1.54,2.08,2.08,0,0,0-.36-.06S41,10.43,44.36,12.5c6.38,4,5.22,8.82,7.07,11.29.91,1.23,7.38,9.2,8.63,10.75A3.6,3.6,0,0,0,59.31,31.65ZM56.65,57.75c-1.3-2.1-4.16-4.38-10.48-4.38H22.85c-6.14,0-9,2.15-10.36,4.19,1.5-.55,6.45-1.67,21.86-1.67C51.92,55.89,55.89,57.35,56.65,57.75Z"/><path opacity="0.2" fill="#565352" d="M44.41,33.8a6.22,6.22,0,0,0,1.14.13c4.16,0,4.26,2.92,6.21,4.81a1.64,1.64,0,0,0,1,0,16.84,16.84,0,0,1-2.41-4.55C48.9,30,47.94,32,44.41,33.8ZM33.82,23.16c-.75-1.44-.9,1.25-.92,2.51a27.16,27.16,0,0,0,1.82,7.27,6.77,6.77,0,0,1,1.61-5.45l.13.15a1.11,1.11,0,0,0,0-.13S34.56,24.59,33.82,23.16Z"/></symbol>
  <symbol id="tactics" viewBox="0 0 90 70"><rect fill="none" width="90" height="70"/><path fill="#95704d" d="M21,10a6.32,6.32,0,0,0-6,6.2V64.14A6,6,0,0,0,21,70H69a6,6,0,0,0,6-5.86V16.2A6.31,6.31,0,0,0,69,10ZM26.19,18.13V20.5H64.35V18.13a9.62,9.62,0,0,0-2.91-7.27A8.66,8.66,0,0,0,60.38,10H30.16a8.66,8.66,0,0,0-1.06.86A9.62,9.62,0,0,0,26.19,18.13Z"/><rect fill="#fbefc4" x="21.32" y="16.32" width="23.68" height="23.68"/><path fill="#bebdb9" d="M51.88,10m0-3.06a6.62,6.62,0,0,0-13.23,0V10s-10.09-.51-10.09,8.13H62C62,9.49,51.88,10,51.88,10ZM45.27,4.66A2.32,2.32,0,1,1,43,7a2.32,2.32,0,0,1,2.32-2.32"/><rect fill="#fbefc4" x="45" y="40" width="23.68" height="23.68"/><path fill="#95704d" d="M59,27.6a1.94,1.94,0,0,0-1.94-2h-17A1.94,1.94,0,0,0,38.73,29L43,33.21,31.08,45.08a1.94,1.94,0,0,0-.57,1.38,1.91,1.91,0,0,0,.57,1.37l5.77,5.78a2,2,0,0,0,2.75,0L51.47,41.73,55.71,46a2,2,0,0,0,2.12.43,1.94,1.94,0,0,0,1.2-1.8v-17"/><polygon fill="#ffcd00" points="57.34 27.87 57.34 44.89 51.38 39.07 37.95 52.51 32.18 46.73 45.62 33.3 39.83 27.51 57.34 27.51"/><polygon opacity="0.3" fill="#fffabe" points="57.34 27.51 57.34 27.87 57.34 44.89 51.38 39.07 37.95 52.51 35.12 49.67 57.28 27.51 57.34 27.51"/></symbol>
  <symbol id="attacking" viewBox="0 0 90 70"><rect fill="none" width="90" height="70"/><path fill="#dad8d6" d="M39.72,48.52,70.91,17.33C75.47,12.78,75,5,75,5s-7.77-.48-12.32,4.08L31.45,40.31l4,4.23ZM50.28,48.52,19.09,17.33C14.53,12.78,15,5,15,5s7.77-.48,12.32,4.08L58.55,40.31l-4,4.23Z"/><path fill="#bebdb9" d="M35.46,44.54l4.26,4L70.91,17.33C75.47,12.78,75,5,75,5ZM54.54,44.54l-4.26,4L19.09,17.33C14.53,12.78,15,5,15,5ZM33.84,42.46c-.81-.77-1.63-1.52-2.39-2.15q-2.26-2-4.37-3.65a2.21,2.21,0,0,0-2.91.18c-.77.78-2.35,2.64-1.86,3.23l3.56,3.55A17.85,17.85,0,0,1,33.84,42.46ZM17,56.38a4.3,4.3,0,0,0-1.1,4.16,8.82,8.82,0,0,0,7.82-2.23l-3.06-3.06A4.22,4.22,0,0,0,17,56.38ZM56.16,42.46c.81-.77,1.63-1.52,2.39-2.15q2.27-2,4.37-3.65a2.21,2.21,0,0,1,2.91.18c.77.78,2.35,2.64,1.86,3.23l-3.56,3.55A17.85,17.85,0,0,0,56.16,42.46ZM73,56.38a4.3,4.3,0,0,1,1.1,4.16,8.82,8.82,0,0,1-7.82-2.23l3.06-3.06A4.22,4.22,0,0,1,73,56.38Z"/><polygon fill="#8b8987" points="42.89 45.35 45.81 42.43 40.88 39.12 42.89 45.35"/><path fill="#8b8987" d="M40,57.66c.59.49,2.45-1.09,3.23-1.87a2.2,2.2,0,0,0,.18-2.9q-1.63-2.1-3.65-4.37a99.87,99.87,0,0,0-8.27-8.21q-2.26-2-4.37-3.65a2.21,2.21,0,0,0-2.91.18c-.77.78-2.35,2.64-1.86,3.23ZM26,59.28s-.51,3-1.65,4.11a5.48,5.48,0,0,1-7.75-7.75C17.75,54.5,20.72,54,20.72,54ZM50,57.66c-.59.49-2.45-1.09-3.23-1.87a2.2,2.2,0,0,1-.18-2.9q1.63-2.1,3.65-4.37a99.87,99.87,0,0,1,8.27-8.21q2.27-2,4.37-3.65a2.21,2.21,0,0,1,2.91.18c.77.78,2.35,2.64,1.86,3.23ZM64,59.28s.51,3,1.65,4.11a5.48,5.48,0,0,0,7.75-7.75C72.25,54.5,69.28,54,69.28,54Z"/><polygon fill="#4c4847" points="34.46 52.17 25.93 59.22 20.64 53.93 27.66 45.44 34.46 52.17"/><polygon fill="#4c4847" points="55.54 52.17 64.07 59.22 69.36 53.93 62.34 45.44 55.54 52.17"/><path fill="#312e2b" d="M34.46,52.17S32,50,24.7,49l3-3.58ZM55.54,52.17S58,50,65.3,49l-3-3.58Z"/><polygon fill="#a1a0a0" points="38.8 30.15 42.33 35.06 45.08 32.31 38.8 30.15"/><polygon fill="#898989" points="42.33 35.06 45.77 39.85 51.2 34.43 45.08 32.31 42.33 35.06"/></symbol>
  <symbol id="attackingking" viewBox="0 0 90 70"><rect fill="none" width="90" height="70"/><path fill="#575452" d="M56.12,54H34.17c-11,0-10.9,7.36-10.9,7.36V65H67V61.32S67.07,54,56.12,54ZM40.51,22.44a15.32,15.32,0,0,0-8.92-2.56,11.36,11.36,0,0,0-8.71,3.93,15.3,15.3,0,0,0-3.45,10.12c0,5.77,3.29,10.18,6.47,13.73,2,2.19,4,3.92,5.28,6.68H59.11c1.31-2.76,3.32-4.49,5.28-6.68,3.18-3.55,6.47-8,6.47-13.73a15.25,15.25,0,0,0-3.45-10.12,11.36,11.36,0,0,0-8.71-3.93,15.32,15.32,0,0,0-8.92,2.56m.48,10.77s3-2.41,5.47-2.41c0,0,4.43.17,3.86,4.63C59.27,38,54.35,43.12,52,46.17H50.26ZM34.6,30.8c2.44,0,5.46,2.41,5.46,2.41v13H38.34C36,43.12,31.05,38,30.73,35.43,30.16,31,34.6,30.8,34.6,30.8Zm15.18-8.36-1.11-6.08h4.42V9.54H48.55V5H41.74V9.54H37.2v6.82h4.41l-1.1,6.08"/><path opacity="0.2" fill="#fff" d="M24.31,58.11c1.22-2,3.91-4.15,9.86-4.15H56.12c5.77,0,8.47,2,9.75,4-1.42-.51-6.08-1.58-20.57-1.58C28.76,56.35,25,57.73,24.31,58.11Z"/><path opacity="0.2" fill="#575452" d="M25.11,42.95,35.75,42.95,38.34,46.17,25.11,46.17,25.11,42.95ZM67.74,24.28c1.07,2.45,4,10.62-1.52,16.14L63.75,43H54.56L52,46.17h8.64l-7.95,8.17h6.44c1.31-2.76,3.32-4.49,5.28-6.68,3.18-3.55,6.47-8,6.47-13.73A15.39,15.39,0,0,0,67.74,24.28Z"/><polygon opacity="0.3" fill="#fff" points="47.71 10.45 53.09 10.45 53.09 9.54 48.55 9.54 47.71 10.45"/><polygon opacity="0.3" fill="#fff" points="42.6 5.86 47.7 5.86 48.55 5 48.55 5 41.74 5 41.74 9.54 37.2 9.54 37.2 16.36 37.2 16.36 38.06 15.5 38.06 10.4 42.6 10.4 42.6 5.86"/><path fill="#dad8d6" d="M29.14,44.43H73.86c7,0,12.6-6.34,12.6-6.34s-5.6-6.34-12.6-6.34H29.09l-.17,6.34Z"/><path fill="#bebdb9" d="M28.92,38.09l.22,6.34H73.86c7,0,12.6-6.34,12.6-6.34ZM29.09,31.75c-.12-2.19-.31-4.26-.55-6.16a2.39,2.39,0,0,0-2.37-2.1c-1.2,0-3.85.22-3.92,1V37.92C24.45,34,29.09,31.75,29.09,31.75ZM3.54,38c0-3.3.46-6,3.76-6,1.76,0,1.79,1.9,1.79,1.9a6.36,6.36,0,0,0-3.35,1.15A6.12,6.12,0,0,0,3.54,38Z"/><polygon fill="#8b8987" points="36.93 44.43 41.21 44.43 39.97 31.67 36.93 44.43"/><polygon fill="#8b8987" points="53.35 44.43 49 44.43 50.24 31.67 53.35 44.43"/><path fill="#8b8987" d="M22.3,51.65c.07.82,2.72,1.05,3.91,1.05a2.41,2.41,0,0,0,2.38-2.1c.24-1.91.43-4,.55-6.17a106.51,106.51,0,0,0-.05-12.68c-.12-2.19-.31-4.26-.55-6.16a2.39,2.39,0,0,0-2.37-2.1c-1.2,0-3.85.22-3.92,1ZM9.09,42.06S9.06,44,7.3,44C4,44,3.54,41.28,3.54,38S4,32,7.3,32c1.76,0,1.79,1.9,1.79,1.9Z"/><polygon fill="#4c4847" points="22.28 32.78 9.09 33.92 9.09 42.06 22.23 43.19 22.28 32.78"/><path fill="#312e2b" d="M22.28,32.78s-.19,3.61-5.07,9.93l5,.48Z"/><polygon fill="#575452" points="40.06 32.59 40.06 47.65 50.26 47.65 50.26 32.59 54.46 30.87 36.89 31.34 40.06 32.59"/></symbol>
  <symbol id="openings" viewBox="0 0 90 70"><rect fill="none" width="90" height="70"/><polygon fill="#b4875f" points="73.47 48.34 76.39 49.61 73.7 51.31 73.47 48.34"/><polygon fill="#b4875f" points="73.28 38.14 76.19 39.41 73.5 41.11 73.28 38.14"/><polygon fill="#b4875f" points="73.57 27.84 76.48 29.11 73.8 30.81 73.57 27.84"/><path fill="#c59a76" d="M77,49.9l-1.68.33A16.25,16.25,0,0,1,74.7,45a22.92,22.92,0,0,1,.3-2.86l2.08-1.19c.69-.4.59-1-.2-1.29l-1.57.48s0,0,0,0c-.78-1.48-.79-3.74-.6-5.66.1-1,.26-1.92.38-2.58l2.19-1.24a.73.73,0,0,0,.39-.6c.1-.2-.2-.5-.59-.7l-.6-.2-1.18.62a12.43,12.43,0,0,1-.52-5.42c.07-.77.17-1.43.27-2l2.13-1.21c.69-.4.59-1-.2-1.3L41.21,5.21a3.45,3.45,0,0,0-2.67.11L13.74,19.41a8.55,8.55,0,0,0-1.28,4.5,9.31,9.31,0,0,0,1.18,4.59,11.38,11.38,0,0,0-.19,10.31c-1.58,2.4-1.59,6.8.1,10.29L52.67,65,77.28,51.2C78,50.81,77.87,50.2,77,49.9Z"/><path fill="#e7e6e5" d="M75.3,50.23,51.47,63.88,50.11,34.17,75.3,21s-1.35,5.32,0,8.71a3.85,3.85,0,0,1,0,1.05s-1.63,6.25,0,9.28a.9.9,0,0,1-.08.91A19.33,19.33,0,0,0,75.3,50.23Z"/><path fill="#bebdb9" d="M53.2,36.66,74.78,24.31A25.29,25.29,0,0,1,75.3,21L50.11,34.17l.36,7.9,1.41.74A17.28,17.28,0,0,1,53.2,36.66ZM53,46.85,74.7,34.48c.1-1,.26-2,.39-2.63v-.58L50.56,44l.39,8.6.73.38A17.35,17.35,0,0,1,53,46.85ZM53.2,57.25,74.7,45a22.88,22.88,0,0,1,.35-3.2L51,54.28l.41,8.89.44.23A17.35,17.35,0,0,1,53.2,57.25Z"/><path fill="#a88865" d="M52.47,54.71,77.08,40.9c.69-.4.59-1-.2-1.29l-.69-.21L51.68,53a15.8,15.8,0,0,1,1-8.49l-39-16a11.38,11.38,0,0,0-.19,10.31ZM77,49.9l-.59-.29L51.88,63.4a16.37,16.37,0,0,1,.59-8.69l-39-15.9c-1.58,2.4-1.59,6.8.1,10.29L52.67,65,77.28,51.2C78,50.81,77.87,50.2,77,49.9ZM52.67,44.51l24.61-13.9a.73.73,0,0,0,.39-.6c.1-.2-.2-.5-.59-.7l-.6-.2h-.09L51.88,42.81a18.63,18.63,0,0,1-.39-3.41,11,11,0,0,1,.89-4.29h0L13.74,19.41a8.55,8.55,0,0,0-1.28,4.5,9.31,9.31,0,0,0,1.18,4.59Z"/><path fill="#d3aa84" d="M77,19.81,41.21,5.21a3.45,3.45,0,0,0-2.67.11L13.74,19.41l38.64,15.7,24.8-14C77.87,20.71,77.77,20.11,77,19.81Z"/><path fill="#7a5441" d="M13.45,38.81c-.11.17-.2.37-.3.56L52.47,54.71l-39.4-16.8C13.19,38.21,13.3,38.52,13.45,38.81ZM13.37,29.06,52.42,44.4l.25.1L13.23,27.62c.13.3.25.59.41.88C13.54,28.67,13.46,28.87,13.37,29.06Z"/><path fill="#95704d" d="M60,18.84h-.29a2.64,2.64,0,0,0-.38-.18,4.92,4.92,0,0,0-2.29,0,1,1,0,0,0-.57-.41,3.66,3.66,0,0,0-.72-.15c-1.54-.17-4.15,1.1-5.32.9-.87-.14-3.88-1-5.38-1.44a7.18,7.18,0,0,0,1.54-1l-.07-.44H46l-.46-.21a.59.59,0,0,0-.22,0c-.49.07-2.27.38-3,.5.16-.65-.45-1.26-1.58-1.67a9.17,9.17,0,0,0-6.36.31,2.24,2.24,0,0,0-1,.88h-.17l.08.57h0c.09.5.62,1,1.56,1.32a9.17,9.17,0,0,0,4.08.36c-.09.2-.27.61-.4.93h-.23l.06.43s.12.09.12.09a7.32,7.32,0,0,0,1.67.33,13.62,13.62,0,0,0,2-.84c1.26.55,3.78,1.67,4.27,2s-.64,1.15-1,1.8h-.18l.05.35a.38.38,0,0,0,.12.29,1.32,1.32,0,0,0,.48.28,3.32,3.32,0,0,0,1,.16s0,0,0,0h-.17l0,.35c0,.19.1.41.58.58a4,4,0,0,0,1.54.2,13.52,13.52,0,0,0,2.75-.61,29.11,29.11,0,0,0,4.28-1.8,17.66,17.66,0,0,0,3.29-2.16c.54-.52.87-.95.87-1.28Z"/><path fill="#fcd157" d="M57,18.21a1,1,0,0,0-.57-.41,2.78,2.78,0,0,0-.73-.15c-1.53-.17-4.15,1.1-5.32.9-.87-.15-3.88-1-5.38-1.44a6.54,6.54,0,0,0,1.54-1,2.85,2.85,0,0,0-1-.64.59.59,0,0,0-.22,0c-.49.07-2.27.38-3,.5.16-.65-.45-1.27-1.57-1.67a9.08,9.08,0,0,0-6.37.31c-1.62.85-1.4,2.09.49,2.77a9.17,9.17,0,0,0,4.08.35c-.15.33-.51,1.15-.57,1.37,0,0,.12.09.12.09a7.4,7.4,0,0,0,1.66.32,11.42,11.42,0,0,0,2-.84c1.26.56,3.78,1.68,4.28,2,.66.46-1.72,1.81-1.05,2.43a1.19,1.19,0,0,0,.48.28,3.37,3.37,0,0,0,1,.17c.09,0-.56.6.46,1a4.26,4.26,0,0,0,1.55.2,15.12,15.12,0,0,0,2.74-.61,29.39,29.39,0,0,0,4.28-1.81,17.26,17.26,0,0,0,3.29-2.15c.54-.52.87-1,.87-1.29s-.37-.48-.74-.62A5,5,0,0,0,57,18.21Z"/></symbol>
  <symbol id="endgames" viewBox="0 0 90 70"><rect fill="none" width="90" height="70"/><path fill="#575452" d="M72.73,17.36a6.1,6.1,0,0,0-5.91,6,5.88,5.88,0,0,0,1,3L61,33.53l-.79-16.62a6,6,0,0,0,4-5.64A6.2,6.2,0,0,0,57.93,5a6.27,6.27,0,0,0-6.27,6.27A6,6,0,0,0,54,16L49.1,30.05l-2.05-5.9L44.21,16a6,6,0,0,0,2.32-4.69A6.27,6.27,0,0,0,40.27,5,6.2,6.2,0,0,0,34,11.27a5.85,5.85,0,0,0,4,5.64L37.6,27.55l-7,5.74L34.34,53c-7.06,1.32-7.05,5.56-7,10.44V65H70.89V63.45c0-4.88,0-9.12-7-10.44l9.89-23.79a6.16,6.16,0,0,0,5-5.88A6,6,0,0,0,72.73,17.36ZM27.51,22.71a8.19,8.19,0,0,0-5.08,14.62l-4.25,2.8-.32.22v.38a4.4,4.4,0,0,0,.71,2.47l.14.26.21.37h4c-.18,2-.72,7-7.14,11.05-2.87,1.8-4.52,5.23-4.52,9.41V65H43.74v-.71c0-4.18-1.65-7.61-4.52-9.41-6.4-4-7-9.05-7.14-11.05h4l.2-.37.14-.26a4.3,4.3,0,0,0,.71-2.47v-.38l-.32-.22-4.25-2.8a8.19,8.19,0,0,0-5.08-14.62Z"/><path opacity="0.2" fill="#575452" d="M78.72,23.34a6,6,0,0,0-1.31-3.73,6.26,6.26,0,0,1-1.68,5.24c-1.27,1.18-3.38,1.42-4.16,3.21A80.54,80.54,0,0,1,60.43,44.57c-6.75,7.3-11.28,7.92-11.28,7.92L63.87,53l9.88-23.75A6.16,6.16,0,0,0,78.72,23.34ZM40.82,52.33a12.12,12.12,0,0,1-5-5.48h2.08l.85-1.59.2-.37.14-.24a7.32,7.32,0,0,0,1.08-3.92v-2l-1.36-.89-.32-.21-1.39-.92a11.2,11.2,0,0,0,1.61-5.8,11.07,11.07,0,0,0-.9-4.38l-2.45,0H33.46l-5.12,6.75L32.08,53c-7.06,1.32-7,5.56-7,10.44V65H46.76v-.71C46.76,59.05,44.59,54.69,40.82,52.33ZM31.54,52.48c3.31,3.13,8.5,4,9.67,4.14a8.47,8.47,0,0,0-2-1.74c-6.4-4-7-9.05-7.14-11.05h4l.2-.37.14-.26a4.3,4.3,0,0,0,.71-2.47v-.38l-.32-.22-4.25-2.8a8.19,8.19,0,0,0-2.21-14.09c2.73,1.93,4.58,6.89,2,10.5-2,2.78-5.82,3.61-5.82,3.61h4.75c.06.06,3.35,3.58,0,5.77H18.53l0,.08.14.26.21.37h4a1.5,1.5,0,0,1,0,.2C23.16,44.27,27.73,48.89,31.54,52.48Z"/><path fill="#d2ceb4" d="M36.65,56.09,27.96,47.4,45.52,29.84,52.52,30.85,54.21,38.53,36.65,56.09ZM50.48,26.54H34.66A2.26,2.26,0,0,0,32.4,28.8v2.5a2.26,2.26,0,0,0,2.26,2.26H48.22a2.26,2.26,0,0,1,2.26,2.26V50.37a2.27,2.27,0,0,0,2.27,2.26h2.5a2.26,2.26,0,0,0,2.26-2.26V28.8a2.26,2.26,0,0,0-2.26-2.26Z"/><path fill="#fff" opacity="0.3" d="M74.14,17.53a5.92,5.92,0,0,0-1.41-.17,6.1,6.1,0,0,0-5.91,6,5.49,5.49,0,0,0,.65,2.43A8.75,8.75,0,0,1,74.14,17.53ZM41.19,5.08A5.62,5.62,0,0,0,40.27,5,6.2,6.2,0,0,0,34,11.27a6,6,0,0,0,.79,3C35.49,9,38.64,6,41.19,5.08ZM59.1,5.11A6.45,6.45,0,0,0,57.93,5a6.27,6.27,0,0,0-6.27,6.27,6,6,0,0,0,.78,2.9C53.15,8.67,56.57,5.73,59.1,5.11ZM23.14,40.35a5.21,5.21,0,0,0-.71-3l-4.57,3ZM28.41,22.77a6.58,6.58,0,0,0-.9-.06,8.17,8.17,0,0,0-7.46,11.55C20.71,27,25.28,23.3,28.41,22.77ZM19,55.58c2.6-1.9,3-7.48,3-7.83a14.83,14.83,0,0,1-6.28,7.13C13,56.66,11.34,60,11.29,64.11,12.84,59.18,15,58.49,19,55.58Z"/></symbol>
  <symbol id="strategy" viewBox="0 0 90 70"><rect fill="none" width="90" height="70"/><path fill="#6c9d41" d="M54.43,1.24a4.47,4.47,0,0,0-4.16.2L38.76,9.15a4.35,4.35,0,0,1-4.14.15L18.76.28C17.6-.38,16.65.17,16.65,1.51V55.6a4.91,4.91,0,0,0,2.05,3.73l16,10a3.74,3.74,0,0,0,4-.2l11.71-9.05a3.88,3.88,0,0,1,4-.26l16.86,9.84c1.16.67,2.1.13,2.1-1.2V13.88a4.5,4.5,0,0,0-2.14-3.59Z"/><path fill="#4e7838" d="M50.27,1.44,38.76,9.15a4.17,4.17,0,0,1-2,.6v60.1a3.45,3.45,0,0,0,1.92-.67l11.71-9.05a3.65,3.65,0,0,1,1.92-.69V.83A4.07,4.07,0,0,0,50.27,1.44Z"/><polygon fill="#e9eacf" points="20.21 22.23 36.74 31.95 36.74 15.42 20.21 5.7 20.21 22.23"/><polygon fill="#e9eacf" points="20.21 55.28 36.74 65 36.74 48.48 20.21 38.75 20.21 55.28"/><polygon fill="#666463" points="26.1 54.94 28.98 56.64 28.98 56.64 28.98 49.75 26.1 48.05 26.1 54.94"/><polygon fill="#e9eacf" points="69.79 31.21 52.29 21.49 52.29 4.96 69.79 14.69 69.79 31.21"/><polygon fill="#e9eacf" points="69.79 64.26 52.29 54.54 52.29 38.02 69.79 47.74 69.79 64.26"/><polygon fill="#c5d3a0" points="36.74 48.48 52.29 38.02 52.29 21.49 36.74 31.95 36.74 48.48"/><ellipse fill="#666463" cx="28.34" cy="38.18" rx="2.43" ry="3.24" transform="translate(-18.07 27.86) rotate(-40.89)"/><ellipse fill="#666463" cx="28.34" cy="28.77" rx="2.43" ry="3.24" transform="translate(-11.92 25.57) rotate(-40.89)"/><ellipse fill="#666463" cx="28.34" cy="19.36" rx="2.43" ry="3.24" transform="translate(-5.76 23.28) rotate(-40.89)"/><ellipse fill="#514c46" cx="48.7" cy="15.01" rx="3.24" ry="2.43" transform="translate(5.48 42) rotate(-49.11)"/><ellipse fill="#514c46" cx="40.42" cy="20.48" rx="3.24" ry="2.43" transform="translate(-1.52 37.64) rotate(-49.11)"/><polygon fill="#666463" points="27.82 44.67 23.78 48.12 31.43 51.68 27.82 44.67"/><polygon fill="#666463" points="58.17 21.94 60.07 23.06 60.07 11.79 58.17 10.67 58.17 21.94"/><polygon fill="#666463" points="61.97 24.18 63.87 25.29 63.87 14.02 61.97 12.91 61.97 24.18"/><polygon fill="#666463" points="56.23 18.56 56.22 16.36 65.96 22.02 65.97 24.23 56.23 18.56"/><polygon fill="#666463" points="56.21 14.15 56.2 11.95 65.94 17.62 65.95 19.82 56.21 14.15"/></symbol>
  <symbol id="tactics" viewBox="0 0 90 70"><rect fill="none" width="90" height="70"/><path fill="#95704d" d="M21,10a6.32,6.32,0,0,0-6,6.2V64.14A6,6,0,0,0,21,70H69a6,6,0,0,0,6-5.86V16.2A6.31,6.31,0,0,0,69,10ZM26.19,18.13V20.5H64.35V18.13a9.62,9.62,0,0,0-2.91-7.27A8.66,8.66,0,0,0,60.38,10H30.16a8.66,8.66,0,0,0-1.06.86A9.62,9.62,0,0,0,26.19,18.13ZM59,27.6a1.94,1.94,0,0,0-1.94-2h-17A1.94,1.94,0,0,0,38.73,29L43,33.21,31.08,45.08a1.94,1.94,0,0,0-.57,1.38,1.91,1.91,0,0,0,.57,1.37l5.77,5.78a2,2,0,0,0,2.75,0L51.47,41.73,55.71,46a2,2,0,0,0,2.12.43,1.94,1.94,0,0,0,1.2-1.8v-17Z"/><rect fill="#fbefc4" x="21.32" y="16.32" width="23.68" height="23.68"/><path fill="#bebdb9" d="M51.88,10m0-3.06a6.62,6.62,0,0,0-13.23,0V10s-10.09-.51-10.09,8.13H62C62,9.49,51.88,10,51.88,10ZM45.27,4.66A2.32,2.32,0,1,1,43,7a2.32,2.32,0,0,1,2.32-2.32"/><rect fill="#fbefc4" x="45" y="40" width="23.68" height="23.68"/><polyline fill="#ffcd00" points="57.34 27.87 57.34 44.89 51.38 39.07 37.95 52.51 32.18 46.73 45.62 33.3 39.83 27.51 57.34 27.51"/><polygon fill="#fffabe" opacity="0.3" points="57.34 27.51 57.34 27.87 57.34 44.89 51.38 39.07 37.95 52.51 35.12 49.67 57.28 27.51 57.34 27.51"/></symbol>
  <symbol id="misc" viewBox="0 0 90 70"><rect fill="none" width="90" height="70"/><path fill="#95704d" d="M21,5a6.32,6.32,0,0,0-6,6.2V59.14A6,6,0,0,0,21,65H69a6,6,0,0,0,6-5.86V11.2A6.31,6.31,0,0,0,69,5ZM45.29,17c6.13,0,12.26,3.23,12.26,10,0,4.76-2.3,6.47-6,8.83-2.55,1.67-3.19,4-3.23,6.93H40.54v-4c0-3.82,2.16-5.49,4-6.82,2-1.37,3.92-2.4,3.92-4.85a3,3,0,0,0-3.18-3c-2.71,0-4.07,1.62-4.22,4.21v.94H32.45C32.55,21.49,37.64,17,45.29,17ZM48.29,45.23V53h-7.75V45.23ZM44.86,25.15a2.74,2.74,0,1,1-2.74,2.74A2.74,2.74,0,0,1,44.86,25.15Z"/><path fill="#fbefc4" d="M21.32,11.32H45V35H21.32ZM45,35H68.68V58.68H45Z"/><path fill="#fff" d="M40.54,44a1.2,1.2,0,0,1-1.2-1.2v-4c0-4.52,2.69-6.49,4.46-7.78l.62-.42c1.85-1.25,2.81-2,2.81-3.47a1.79,1.79,0,0,0-2-1.8c-1.22,0-2.87.32-3,3.09v.87A1.19,1.19,0,0,1,41,30.43H32.45a1.21,1.21,0,0,1-.86-.35,1.24,1.24,0,0,1-.34-.86c.1-8.26,5.49-13.39,14-13.39,6.48,0,13.46,3.5,13.46,11.2,0,5.29-2.61,7.33-6.59,9.84-1.87,1.23-2.63,2.9-2.67,5.94A1.21,1.21,0,0,1,48.29,44ZM39.34,44a1.2,1.2,0,0,0-1.2,1.2V54.2a1.2,1.2,0,0,0,1.2,1.2h7.74a1.2,1.2,0,0,0,1.2-1.2V45.2a1.2,1.2,0,0,0-1.2-1.2Z"/></symbol>
  <symbol id="activatingpieces" viewBox="0 0 90 70"><rect fill="none" width="90" height="70"/><path fill="#575452" d="M53.8,18.37l-2.73,4.9a40,40,0,0,0-3.25,8,74.45,74.45,0,0,0-1.67,8.44l-4.38,0A50.11,50.11,0,0,1,44.67,27l5.71-11.79h0A7.53,7.53,0,0,0,51.15,13a6,6,0,0,0,.21-1.54,6.6,6.6,0,0,0-13.19,0,16.82,16.82,0,0,0,.69,3.94S29,24,29,36.67a28.27,28.27,0,0,0,6,17.26H54.9a28.28,28.28,0,0,0,6-17.22C60.89,28.42,56.7,21.9,53.8,18.37ZM56.22,53.67H33.71c-11.23,0-11.18,7.55-11.18,7.55V65H67.4V61.22S67.45,53.67,56.22,53.67Z"/><path fill="#000" opacity="0.2" d="M60.89,36.71a27.81,27.81,0,0,0-4.46-14.66c8.22,23-13.66,31.83-13.66,31.83l1.24,0H54.9A28.28,28.28,0,0,0,60.89,36.71ZM41.77,39.72A50.11,50.11,0,0,1,44.67,27l5.71-11.79h0A7.53,7.53,0,0,0,51.15,13a6,6,0,0,0,.21-1.54A6.42,6.42,0,0,0,49,6.57C52.89,14.34,35.87,27.38,41.77,39.72Z"/><path fill="#fff" opacity="0.2" d="M45.18,5c-.14,0-.27,0-.41,0a6.54,6.54,0,0,0-6.6,6.48,10.19,10.19,0,0,0,.08,1.07,7.16,7.16,0,0,0,.18,1C39.06,9.06,42.62,5.75,45.18,5ZM38.86,15.42S29,24,29,36.67a27,27,0,0,0,1.16,7.72,44.61,44.61,0,0,1,10-28.52ZM23.59,57.94c1.26-2,4-4.27,10.12-4.27H56.22c5.92,0,8.69,2.1,10,4.08-1.45-.53-6.23-1.62-21.1-1.62C28.16,56.13,24.33,57.55,23.59,57.94Z"/><polygon fill="#ffcc04" points="19.63 30.89 11.39 30.89 19.63 35.95 19.63 33.14 26.57 33.14 19.63 28.36 19.63 30.89"/><polygon fill="#ffcc04" points="20.27 47.27 14.52 53.02 23.81 50.81 21.88 48.88 26.86 43.9 18.45 45.45 20.27 47.27"/><polygon fill="#ffcc04" points="20.27 16.17 14.52 10.41 23.81 12.63 21.88 14.56 26.86 19.54 18.45 17.99 20.27 16.17"/><polygon fill="#ffcc04" points="70.37 30.89 78.61 30.89 70.37 35.95 70.37 33.14 63.43 33.14 70.37 28.36 70.37 30.89"/><polygon fill="#ffcc04" points="69.73 47.27 75.48 53.02 66.19 50.81 68.12 48.88 63.14 43.9 71.55 45.45 69.73 47.27"/><polygon fill="#ffcc04" points="69.73 16.17 75.48 10.41 66.19 12.63 68.12 14.56 63.14 19.54 71.55 17.99 69.73 16.17"/></symbol>
  <symbol id="advancedendgames" viewBox="0 0 90 70"><rect fill="none" width="90" height="70"/><rect fill="#95704d" x="15" y="5" width="60" height="60" rx="5.67" ry="5.67"/><rect fill="#fbefc4" x="54" y="44" width="18" height="18"/><rect fill="#fbefc4" x="18" y="44" width="18" height="18"/><rect fill="#fbefc4" x="54" y="8" width="18" height="18"/><rect fill="#fbefc4" x="36" y="26" width="18" height="18"/><rect fill="#fbefc4" x="18" y="8" width="18" height="18"/><path fill="#312e2b" d="M45,27.5a3.36,3.36,0,0,0-2.8,5.28l-.62.4-.1.07-.35.22V34a2.07,2.07,0,0,0,.33,1.15l0,.08.07.13.21.38h.85a3.93,3.93,0,0,1-1.81,2.14A4.15,4.15,0,0,0,39,41.52v1H51v-1a4.13,4.13,0,0,0-1.81-3.64,3.93,3.93,0,0,1-1.81-2.14h.85l.21-.38.07-.12.05-.1A2.07,2.07,0,0,0,48.92,34v-.53l-.35-.22-.1-.07-.62-.4A3.37,3.37,0,0,0,45,27.5ZM64.47,9.5H61.62v1.35H60.27v1.93a4.56,4.56,0,0,0-.76-.07A4.28,4.28,0,0,0,56.68,14a3.78,3.78,0,0,0-1.14,2.76,4.67,4.67,0,0,0,1.94,3.4c.24.23.48.45.69.67a2.29,2.29,0,0,0-1.28,2.28V24.5h12.3V23.11a2.27,2.27,0,0,0-1.27-2.28q.31-.33.69-.66a5,5,0,0,0,1.93-3.49A3.58,3.58,0,0,0,69.41,14a4.28,4.28,0,0,0-2.83-1.29,4.47,4.47,0,0,0-.76.07V10.85H64.47V9.5ZM60,17V16.9a1,1,0,0,1,.31-.08,11.57,11.57,0,0,1,1.31.14v1.31h-.08a10.38,10.38,0,0,0-.84-.7A4.65,4.65,0,0,1,60,17Zm4.47,0a11.69,11.69,0,0,1,1.35-.14.77.77,0,0,1,.28.09.26.26,0,0,1,0,.07,3.75,3.75,0,0,1-.67.67c-.22.19-.45.39-.68.62h-.27V17ZM28.47,45.5H25.62v1.35H24.27v1.93a4.56,4.56,0,0,0-.76-.07A4.28,4.28,0,0,0,20.68,50a3.78,3.78,0,0,0-1.14,2.76,4.67,4.67,0,0,0,1.94,3.4c.24.23.48.45.69.67a2.29,2.29,0,0,0-1.28,2.28V60.5h12.3V59.11a2.27,2.27,0,0,0-1.27-2.28q.31-.33.69-.66a5,5,0,0,0,1.93-3.49A3.58,3.58,0,0,0,33.41,50a4.28,4.28,0,0,0-2.83-1.29,4.47,4.47,0,0,0-.76.07V46.85H28.47V45.5ZM24,53V52.9a1,1,0,0,1,.31-.08,11.57,11.57,0,0,1,1.31.14v1.31h-.08a10.38,10.38,0,0,0-.84-.7A4.65,4.65,0,0,1,24,53Zm4.47,0a12,12,0,0,1,1.35-.15.77.77,0,0,1,.28.09.26.26,0,0,1,0,.07,3.75,3.75,0,0,1-.67.67c-.22.19-.45.39-.68.62h-.27V53Z"/><path fill="#fff" d="M48.83,38.52A4.38,4.38,0,0,1,46.52,35h1.3l.07-.12,0-.08a1.37,1.37,0,0,0,.24-.79v-.12l-.11-.07-1.37-.89a2.66,2.66,0,1,0-3.29,0L42,33.81l-.11.07V34a1.45,1.45,0,0,0,.23.79l.05.08.07.12h1.3a4.38,4.38,0,0,1-2.31,3.53,3.4,3.4,0,0,0-1.47,3v.23h10.5v-.23A3.39,3.39,0,0,0,48.83,38.52ZM32.44,59.11c0-1-.34-1.58-1.73-1.91a7,7,0,0,1,1.39-1.59,4.14,4.14,0,0,0,1.69-2.93,2.85,2.85,0,0,0-.9-2.14,3.51,3.51,0,0,0-2.31-1.08,4.17,4.17,0,0,0-2.32.78L28,49h1.1V47.6H27.72V46.25H26.37V47.6H25V49h1.1l-.29,1.29a4.2,4.2,0,0,0-2.32-.78,3.49,3.49,0,0,0-2.31,1.08,3.05,3.05,0,0,0-.91,2.22c0,1.27.87,2.07,1.7,2.85a7,7,0,0,1,1.39,1.59c-1.39.33-1.74.9-1.74,1.91v.64h10.8ZM26.37,55H25.22c-.64-.76-1.87-1.34-2-1.94-.15-1,1-1,1-1a17.73,17.73,0,0,1,2.1.26Zm2.7,0H27.72v-2.7a18,18,0,0,1,2.1-.26s1.17,0,1,1C30.74,53.69,29.7,54.27,29.07,55Z"/><path fill="#666564" d="M68.44,23.11c0-1-.34-1.58-1.73-1.91a7,7,0,0,1,1.39-1.59,4.14,4.14,0,0,0,1.69-2.93,2.85,2.85,0,0,0-.9-2.14,3.51,3.51,0,0,0-2.31-1.08,4.17,4.17,0,0,0-2.32.78L64,13h1.1V11.6H63.72V10.25H62.37V11.6H61V13h1.1l-.29,1.29a4.2,4.2,0,0,0-2.32-.78,3.49,3.49,0,0,0-2.31,1.08,3.05,3.05,0,0,0-.91,2.22c0,1.27.87,2.07,1.7,2.85a7,7,0,0,1,1.39,1.59c-1.39.33-1.74.9-1.74,1.91v.64h10.8ZM62.37,19H61.22c-.64-.76-1.87-1.34-2-1.94-.15-1,1-1,1-1a17.73,17.73,0,0,1,2.1.26Zm2.7,0H63.72v-2.7a18,18,0,0,1,2.1-.26s1.17,0,1,1C66.74,17.69,65.7,18.27,65.07,19Z"/></symbol>
  <symbol id="endgamepatterns" viewBox="0 0 90 70"><rect fill="none" width="90" height="70"/><path fill="#fff" d="M70.17,5H31.59A4.61,4.61,0,0,0,27,9.71V11H25.59A4.61,4.61,0,0,0,21,15.71V17H19.59A4.61,4.61,0,0,0,15,21.71V41h0V60.29A4.61,4.61,0,0,0,19.6,65H58.17A4.82,4.82,0,0,0,63,60.29V59h1.17A4.82,4.82,0,0,0,69,54.29V53h1.17A4.82,4.82,0,0,0,75,48.29V9.71A4.82,4.82,0,0,0,70.17,5Z"/><path fill="#e9eacf" opacity="0.4" d="M39,17H19.71A4.71,4.71,0,0,0,15,21.71V41H39ZM63,60.29V41H39V65H58.29A4.71,4.71,0,0,0,63,60.29Z"/><path fill="#6c9d41" opacity="0.4" d="M15,41V60.29A4.71,4.71,0,0,0,19.71,65H39V41ZM63,41V21.71A4.71,4.71,0,0,0,58.29,17H39V41Z"/><path fill="#e9eacf" opacity="0.7" d="M45,11H25.71A4.71,4.71,0,0,0,21,15.71V35H45ZM69,54.29V35H45V59H64.29A4.71,4.71,0,0,0,69,54.29Z"/><path fill="#6c9d41" opacity="0.7" d="M21,35V54.29A4.71,4.71,0,0,0,25.71,59H45V35ZM69,35V15.71A4.71,4.71,0,0,0,64.29,11H45V35Z"/><path fill="#e9eacf" d="M51,5H31.71A4.71,4.71,0,0,0,27,9.71V29H51ZM75,48.29V29H51V53H70.29A4.71,4.71,0,0,0,75,48.29Z"/><path fill="#6c9d41" d="M27,29V48.29A4.71,4.71,0,0,0,31.71,53H51V29ZM75,29V9.71A4.71,4.71,0,0,0,70.29,5H51V29Z"/></symbol>
  <symbol id="forcing" viewBox="0 0 90 70"><rect fill="none" width="90" height="70"/><rect fill="#898786" x="36.3" y="13.01" width="2.8" height="1.83" rx="0.91" ry="0.91"/><path fill="#575452" d="M62.76,6.43,61.19,13H56l-.93-7.64a29.09,29.09,0,0,0-4-.36,28.85,28.85,0,0,0-4,.36L46.11,13H40.94L39.36,6.43a12.6,12.6,0,0,0-6,1.51l.37,5.7L50.42,32.23a6,6,0,0,1,0,8.09l-11.73,13h26.4L62,26.56c3.67-1.15,5.61-3.71,6-6.37l.79-12.25A12.57,12.57,0,0,0,62.76,6.43ZM63.05,52.94h-24l-6.39,7.11,0,0h0A6,6,0,0,1,28.22,62a6.22,6.22,0,0,1-1-.1V65H75V61S75,52.94,63.05,52.94Z"/><path fill="#fff" opacity="0.3" d="M34.16,14.16c.28-2.89,1-5.79,2.76-7.43a12.58,12.58,0,0,0-3.59,1.21l.37,5.7ZM52,5c-.31,0-.63,0-.94,0a28.85,28.85,0,0,0-4,.36L46.11,13S47.51,6.34,52,5ZM66,6.84a12.91,12.91,0,0,0-3.19-.41L61.19,13S63.12,8.52,66,6.84Z"/><path fill="#000" opacity="0.2" d="M62,26.56c3.67-1.15,5.61-3.71,6-6.37l.79-12.25a13.14,13.14,0,0,0-1.8-.7c-.81,5-1.87,13.68-4.21,15.73a19.28,19.28,0,0,1-5.33,3.24,81.52,81.52,0,0,0-14.89.23A16.27,16.27,0,0,1,55,32.58c5.1,6.4,5.72,20.76,5.72,20.76h4.34ZM63.05,52.94h-24l-2.8,3.11c3.4-.28,8.21-.5,15-.5,15.83,0,20.92,1.17,22.46,1.73C72.3,55.17,69.35,52.94,63.05,52.94Z"/><path fill="#d2ceb4" d="M47.64,34.75,29.88,15a2.26,2.26,0,0,0-3.18-.13l-3.31,3.05a2.25,2.25,0,0,0-.13,3.18l5.65,6.34H17.3a2.25,2.25,0,0,0-2.25,2.25V42.1a2.25,2.25,0,0,0,2.25,2.25H29.22a2.58,2.58,0,0,0,.39,0l-6.35,7.14a2.25,2.25,0,0,0,.13,3.18l3.31,3a2.25,2.25,0,0,0,3.18-.13L47.64,37.79A2.25,2.25,0,0,0,47.64,34.75Z"/><rect fill="#d2ceb4" x="15.05" y="18.62" width="4.64" height="1.83" rx="0.91" ry="0.91"/><rect fill="#d2ceb4" x="15.05" y="14.1" width="7.64" height="1.83" rx="0.91" ry="0.91"/><rect fill="#d2ceb4" x="15.05" y="51.84" width="4.64" height="1.83" rx="0.91" ry="0.91"/><rect fill="#d2ceb4" x="15.05" y="56.36" width="7.64" height="1.83" rx="0.91" ry="0.91"/></symbol>
  <symbol id="reading" viewBox="0 0 90 70"><rect fill="none" width="90" height="70"/><path fill="#6c9d41" d="M69.11,5H45L15,35V59.11A5.89,5.89,0,0,0,20.89,65H45L75,35V10.89A5.89,5.89,0,0,0,69.11,5ZM57.91,49a14.27,14.27,0,0,1-12.76-7.88,14.26,14.26,0,1,1-1.34-14.94,7.53,7.53,0,0,1,1.35-.11,7.68,7.68,0,0,1,1.35.11,14.09,14.09,0,0,1,11.4-5.71,14.27,14.27,0,0,1,0,28.53Z"/><path fill="#e9eacf" d="M45,5H20.89A5.89,5.89,0,0,0,15,10.91V35H45ZM45,65H69.11A5.89,5.89,0,0,0,75,59.11V35H45Z"/><path fill="#fff" d="M57.91,23.48a11.22,11.22,0,0,0-10.1,6.32,5.24,5.24,0,0,0-5.3,0,11.23,11.23,0,1,0,1.15,5,1.5,1.5,0,0,1,3,0h0a11.25,11.25,0,1,0,11.25-11.3ZM54.7,31.8c-.76.71-1.25,1.77-1.89,1.84s-1.32-1.93.25-3.53,3.56-.92,3.4-.27S55.38,31,54.7,31.8ZM29.2,31.8c-.76.71-1.25,1.77-1.89,1.84s-1.32-1.93.25-3.53,3.56-.92,3.4-.27S29.88,31,29.2,31.8Z" opacity="0.5"/><circle fill="#d2ceb4" cx="32.41" cy="34.72" r="7.51"/><circle fill="#d2ceb4" cx="57.91" cy="34.72" r="7.51"/><path fill="#68933e" d="M39.9,34.72a7.5,7.5,0,1,1-15,0ZM50.48,34.72a7.5,7.5,0,1,1,15,0Z"/></symbol>
  <symbol id="advancedtactics" viewBox="0 0 90 70"><rect fill="none" width="90" height="70"/><path fill="#95704d" d="M21,9.82A6.32,6.32,0,0,0,15,16V64a6,6,0,0,0,6,5.86H69A6,6,0,0,0,75,64V16a6.3,6.3,0,0,0-6-6.2ZM26.19,18v2.37H64.35V18a9.6,9.6,0,0,0-2.91-7.27,8.66,8.66,0,0,0-1.06-.86H30.16a8.66,8.66,0,0,0-1.06.86A9.6,9.6,0,0,0,26.19,18ZM58,25.08a1.5,1.5,0,0,0-2.13,0l-9.33,9.33A1.51,1.51,0,0,0,47.55,37H52.2V50a1.52,1.52,0,0,0,1.51,1.51h6.34A1.52,1.52,0,0,0,61.56,50V37h4.67a1.51,1.51,0,0,0,1.07-2.58L58,25.08ZM31.74,58a1.5,1.5,0,0,0,2.13,0l9.33-9.33a1.51,1.51,0,0,0-1.06-2.57H37.48V33A1.52,1.52,0,0,0,37.05,32,1.54,1.54,0,0,0,36,31.51H29.63a1.42,1.42,0,0,0-1.06.44A1.5,1.5,0,0,0,28.13,33v13H23.46a1.5,1.5,0,0,0-1.07,2.57L31.74,58Z"/><rect fill="#fbefc4" x="21.32" y="16.13" width="23.68" height="23.68"/><path fill="#bebdb9" d="M51.88,9.82m0-3.06a6.62,6.62,0,0,0-13.23,0V9.82S28.56,9.31,28.56,18H62c0-8.64-10.1-8.13-10.1-8.13ZM45.27,4.47A2.33,2.33,0,1,1,43,6.8a2.33,2.33,0,0,1,2.32-2.33"/><rect fill="#fbefc4" x="45" y="39.82" width="23.68" height="23.68"/><polyline fill="#ffcd00" points="57.17 26.16 66.52 35.51 60.05 35.58 60.05 50.34 53.71 50.34 53.71 35.58 47.36 35.58 56.98 25.96"/><polygon fill="#fffabe" opacity="0.3" points="56.98 25.96 57.17 26.16 66.52 35.51 60.05 35.58 60.05 50.34 56.94 50.34 56.94 25.99 56.98 25.96"/><polyline fill="#ffcd00" points="32.52 56.89 23.17 47.54 29.64 47.47 29.64 32.72 35.98 32.72 35.98 47.47 42.33 47.47 32.71 57.09"/><polygon fill="#fffabe" opacity="0.3" points="32.71 57.09 32.52 56.89 23.17 47.54 29.64 47.47 29.64 32.72 32.74 32.72 32.74 57.06 32.71 57.09"/></symbol>

</svg>
