<svg id="Layer_1" data-name="Layer 1" xmlns="http://www.w3.org/2000/svg" viewBox="0 0 90 70"><defs><style>.cls-1{fill:none;}.cls-2{fill:#d3aa84;}.cls-3{fill:#666564;}.cls-4{fill:#8b8987;}.cls-5{fill:#dad8d6;}.cls-6{fill:#a88865;}</style></defs><title>handpawn</title><rect class="cls-1" width="90" height="70"/><path class="cls-2" d="M39.18,35.25c0,.41,0,4.17,4,4.18a10.62,10.62,0,0,0,4.66-1.18l24.42-11A3.36,3.36,0,0,0,74,24.36V10.29a3.15,3.15,0,0,0-2.74-2.7C65.67,6.53,55.93,5,50.8,5c-6.66,0-8,.49-12.2,1.6a40.3,40.3,0,0,0-7.68,3.34s-7.29,3.35-9.73,6.31C18.88,19,15.65,24.84,16,26.52a3.2,3.2,0,0,0,3,2.62c2.48-.12,8.4-7.46,8.4-7.46s7.87-3.62,11.74-3.62h7.74c1.94,0,4.6,1.95,5.7,4.17.87,1.73-10.12,8.66-11.5,9.5a4.6,4.6,0,0,0-1.76,2.7Z"/><path class="cls-3" d="M39.36,34.42a10.1,10.1,0,0,0,.1-1.35,8.71,8.71,0,1,0-13.91,7C25,40.31,24,41,24,41.77v1.94a1.89,1.89,0,0,0,1.14,1.62l-3.07,8.06a5.53,5.53,0,0,0-3.88,1.93,7.61,7.61,0,0,0-1.93,3.88v3.87A2,2,0,0,0,18.17,65H43.34a2,2,0,0,0,1.93-1.93V59.2a7.61,7.61,0,0,0-1.93-3.88,5.53,5.53,0,0,0-3.88-1.93l-3.07-8.06a1.89,1.89,0,0,0,1.14-1.62V41.77c0-.82-1-1.46-1.58-1.75a8.73,8.73,0,0,0,3.23-4.77Z"/><path class="cls-4" d="M18.17,63.33A.48.48,0,0,1,17.9,63V59.2h0a6.45,6.45,0,0,1,1.51-2.77,3.87,3.87,0,0,1,2.63-1.37l1.12,0L23.6,54l3.6-9.43-1.29-.69a1,1,0,0,1-.28-.2l0-1.85s0,0,0,0a5.33,5.33,0,0,0,.65-.36l2.33-1.22-2.11-1.59a7,7,0,0,1-2.83-5.61,7,7,0,0,1,7-7,7.55,7.55,0,0,1,3.76,7.05,7.88,7.88,0,0,1-.08,1.09l-.17.75a7,7,0,0,1-2.59,3.77l-2.11,1.59s.92,1.7,1,1.76l-.06,1.68-1.09.84s-.29,6.73-.28,10.51c-6,.6-4.18,8.27-4.18,8.27Z"/><path class="cls-5" d="M25.38,33.07a5.39,5.39,0,0,1,4.88-5.36C31.91,28.92,25.38,34.75,25.38,33.07Z"/><path class="cls-6" d="M74,24.36V13.22A35.1,35.1,0,0,1,67,26L56.34,34.41h0l15.88-7.13A3.36,3.36,0,0,0,74,24.36Z"/></svg>